<?xml version="1.0" encoding="UTF-8"?>
<svg id="Layer_1" data-name="Layer 1" xmlns="http://www.w3.org/2000/svg" viewBox="0 0 340 270">
  <defs>
    <style>
      .cls-1 {
        fill: #1bbaff;
      }

      .cls-1, .cls-2 {
        fill-rule: evenodd;
        stroke-width: 0px;
      }

      .cls-2 {
        fill: #2f003a;
      }
    </style>
  </defs>
  <path class="cls-2" d="m330,255.99v-10.56c0-12.37-.76-14.44-5.33-14.44-5.17,0-5.67,1.21-5.67,13.71v11.29h-10v-33h4.5c3.89,0,4.5.29,4.5,2.08v2.07l2.64-2.07c3.58-2.82,11.12-2.84,14.69-.03,3.56,2.8,4.66,7.57,4.66,20.2v10.75s-9.99,0-9.99,0Z"/>
  <path class="cls-2" d="m296.72,224.67c-4.86-2.31-13.39-2.17-17.41.28-3.09,1.88-5.31,4.8-5.31,6.98,0,1.67,8.56,1.3,10-.44,1.6-1.92,6.39-1.93,7.99-.01,2.25,2.72.42,4.27-5.91,5.01-8.63,1-12.49,3.8-12.89,9.37-.19,2.65.27,5.19,1.21,6.63,3.03,4.62,12.55,5.67,16.78,1.84,1.69-1.53,1.82-1.53,1.82.01,0,1.32,1.01,1.65,5,1.65h5v-11.53c0-13.69-1.17-17.37-6.28-19.79Zm-9.16,25.32c-3.65,0-5.56-1.02-5.56-2.98,0-2.41,1.93-3.82,6.58-4.8,3.4-.72,3.96-.58,4.25,1.04.5,2.86-2.53,6.74-5.27,6.74Z"/>
  <path class="cls-2" d="m259,247.02c0,1.46-4.91,3.14-7.13,2.44-2.71-.86-4.87-3.32-4.87-5.54,0-1.78.8-1.93,11-1.93h11l-.02-3.25c-.03-4.94-3.43-11.44-7.17-13.72-4.89-2.98-13.24-2.77-17.99.45-6.77,4.6-9.02,17.76-4.15,24.29,5.13,6.87,13.91,9.07,21.52,5.39,4.16-2.02,8.47-7.17,7.12-8.52-1.06-1.06-9.31-.71-9.31.39Zm-10.35-15.2c3-3.3,9.18-1.9,10.68,2.42.54,1.55-.14,1.75-5.86,1.75-6.86,0-7.83-.84-4.82-4.17Z"/>
  <polygon class="cls-2" points="232.04 255.99 222 255.99 222 211.88 226.75 212.19 231.5 212.49 231.77 234.24 232.04 255.99"/>
  <path class="cls-2" d="m215.54,243.68c-3.3,13.14-21.72,17.47-32.59,7.65-10.63-9.6-8.65-30.13,3.58-37.05,5.56-3.15,15.39-3.15,20.95,0,3.96,2.25,8.47,8.59,8.5,11.96.02,1.43-.87,1.75-4.74,1.75-4.26,0-4.88-.29-6.01-2.84-3.36-7.58-14.3-6.45-17.61,1.83-2.81,7.02-1.46,15.42,3.05,18.97,3.73,2.93,9.73,2.74,12.87-.41,1.36-1.35,2.46-2.92,2.46-3.5s2.22-1.05,5.11-1.05c5.04,0,5.1.04,4.43,2.69Z"/>
  <path class="cls-1" d="m153.9,227.12c-2.83-3.04-6.05-4.13-12.22-4.12-3.36,0-6.3.68-8.37,1.95-3.09,1.88-5.31,4.8-5.31,6.98,0,1.67,8.56,1.3,10-.44,1.6-1.92,6.39-1.93,7.99-.01,2.21,2.66.42,4.23-5.66,4.99-6.65.83-10.81,2.68-12.3,5.47-1.5,2.8-1.26,8.28.47,10.76,3.13,4.45,12.54,5.38,16.68,1.63,1.69-1.53,1.82-1.53,1.82.01,0,1.29.98,1.65,4.5,1.65h4.5v-13.31c0-12.13-.19-13.51-2.1-15.56Zm-8.48,20.96c-3.02,3.34-9.42,2.24-9.42-1.61,0-2.28,2.54-3.67,8.5-4.68,2.67-.46,3.28,3.69.92,6.29Z"/>
  <path class="cls-1" d="m116.5,222.99c-3.89,0-4.5.29-4.5,2.08v2.07l-2.64-2.07c-3.11-2.45-9.53-2.72-13.51-.56-5.73,3.12-8.64,15.26-5.47,22.85,3,7.19,10.81,10.24,17.61,6.87l4.01-1.98v3.3c0,1.82-.71,4.01-1.57,4.87-1.98,1.98-7.44,2.04-9.99.11-1.92-1.46-8.55-2.09-9.71-.93-1.3,1.3,1.87,5.66,5.43,7.48,7.3,3.72,18.28,1.98,22.67-3.6,2.05-2.6,2.17-3.78,2.17-21.62v-18.87h-4.5Zm-11.1,25.25c-6.28,0-8.97-10.77-3.94-15.79,2.95-2.96,4.56-3.07,7.68-.54,1.97,1.59,2.36,2.83,2.36,7.46,0,6.36-1.73,8.87-6.1,8.87Z"/>
  <path class="cls-1" d="m74.07,248.1c-4.72,3.49-11.07.89-11.07-4.54,0-1.32,1.68-1.57,11-1.57h11l-.02-3.25c-.04-4.94-3.43-11.44-7.17-13.72-4.28-2.61-12.11-2.69-16.8-.17-6.47,3.47-9.86,14.12-6.95,21.83,3.85,10.18,18.11,13.49,26.48,6.14,1.9-1.67,3.46-3.89,3.46-4.93,0-2.69-6.18-2.57-9.93.21Zm-9.42-16.28c2.19-2.41,6.85-2.32,9.35.17,3.25,3.25,2.41,4-4.5,4s-7.86-.83-4.85-4.17Z"/>
  <path class="cls-1" d="m47,211.99v44h-8.94l-.28-13.72-.28-13.73-5.41,13.73c-5.4,13.69-5.42,13.72-8.65,13.72s-3.26-.06-8.79-13.75l-5.56-13.75-.04,13.75-.05,13.75H0v-44.09l5.73.3,5.74.29,5.68,13.83c3.12,7.61,5.88,14.04,6.12,14.28s3.1-6.08,6.34-14.07l5.89-14.52,11.5-.02Z"/>
  <path class="cls-1" d="m70.65,119l-4.78,3.03.31-3.18c.26-2.62.94-3.41,3.82-4.45,8.41-3.02,8.76-.54.65,4.6Z"/>
  <path class="cls-1" d="m50.32,132.99c-3.38,12.41-10.77,21.16-21.14,25.04-5.32,1.99-5.68,2.01-6.9.34-1.89-2.59-1.56-9.92.64-14.16,3.33-6.44,12.89-14.44,24.58-20.56,6.03-3.16,6.14-2.8,2.82,9.34Z"/>
  <path class="cls-1" d="m330,134.82c0,.45-3.04,3.95-6.75,7.77-29.29,30.16-90.49,46.4-174.77,46.4-49.95,0-88.24-5.19-108.34-14.71l-7.36-3.48,5.66-2.86c8.5-4.29,14.75-10.34,20.12-19.49.97-1.64,1.5-1.35,5.5,2.98,2.44,2.64,4.77,5.66,5.17,6.72.4,1.05,2.12,2.69,3.82,3.63,1.7.94,5.82,3.68,9.16,6.08,19.01,13.66,42.51,19.13,76.29,17.72,49.31-2.04,89.08-9.23,110.13-19.9,10.5-5.32,20.11-16.04,22.4-25.01.59-2.29,1.26-4.74,1.49-5.43.31-.94,5.01-1.25,18.95-1.25,10.19,0,18.53.38,18.53.83Z"/>
  <path class="cls-1" d="m240.62,155.42c-9.43,5.97-39.51,17.02-41.34,15.19-.31-.31.06-.76.83-.99,19.22-5.76,27.09-10.44,31.49-18.72,2.58-4.86,2.31-13.23-.59-18.91-6.99-13.65-27.35-25.36-50.53-29.06-4.39-.7-8.66-1.93-9.48-2.73-1.31-1.27-.14-1.38,9.5-.86,26.93,1.44,57.74,11.07,68.87,21.52,11.43,10.75,8.11,23.9-8.75,34.56Z"/>
  <path class="cls-2" d="m216.36,138.93c-3.72-3.9-6.46-5.94-7.98-5.94-5.61,0-13.86-4.3-19.72-10.27-3.21-3.28-10.64-10.23-16.5-15.45-5.86-5.22-11.42-11.04-12.35-12.94-1.67-3.41-2.81-20.91-1.5-23.03,1.1-1.78.48-9.31-.77-9.31-.8,0-1.63-3.38-2.4-9.75-1.3-10.65-4.51-18.82-8.71-22.12-2.59-2.04-2.43-4.59.41-6.72.81-.61,1.14-1.63.74-2.28-.4-.64-.13-2.53.6-4.19,1.08-2.46,1.75-2.91,3.67-2.43,2.94.73,2.5-1.56-.56-2.95-1.16-.52-2.59-2.62-3.22-4.71-1.45-4.85-4.39-6.85-10.04-6.84-3.25,0-5.27.64-7.14,2.25-3.03,2.6-4.78,6.69-5.14,11.99-.27,4.04-.75,4.36-3.96,2.65-1.22-.66-9.1-1.23-19.18-1.39-15.24-.24-17.68-.05-22.27,1.76-4.41,1.73-5.23,2.48-5.65,5.13-.27,1.71.08,4.01.78,5.11,1.12,1.79,3.53,11.03,3.53,13.54,0,.53-1.39.95-3.1.95-4.17,0-9.52,2.67-11.81,5.88-4.39,6.17-5.22,12.18-6.08,44.13-.91,34.06-1.78,40.02-7.52,51.68-4.37,8.87-10.19,14.23-19.59,18.03-4.74,1.91-6.82,3.26-6.62,4.28.83,4.17,15.17-1.79,22.42-9.32,5.94-6.17,8.3-10.13,11.14-18.74,3.37-10.2,4.33-19.48,5.14-49.93.43-15.95,1.27-30.08,1.89-32.08,1.74-5.53,4.93-7.99,9.42-7.27,2.04.34,3.71,1.15,3.71,1.81,0,.98,2.3,2.56,6.07,4.19.32.13,1.75-.37,3.19-1.12,2-1.03,3.57-1.11,6.68-.32,4.38,1.11,4.88,2.17,2.59,5.43-.8,1.15-1.89,3.84-2.41,5.97-.53,2.14-2.34,7.18-4.03,11.22-3.84,9.15-7.84,23.78-8.67,31.67-.8,7.53-3.48,18.4-7.39,29.93-3.36,9.91-3.61,11.56-1.77,11.56.87,0,1.15,1.35.91,4.38-.33,4.15-.19,4.42,2.92,5.51,3.75,1.3,9.3.56,10.99-1.48.63-.76.87-2.48.53-3.82-.39-1.56-.05-3,.94-3.99.86-.86,1.99-4.38,2.52-7.83,2.42-15.69,8.39-37.79,12.28-45.47,2.55-5.03,6.75-9.29,9.16-9.29,2.19,0,8.87,8.23,14.92,18.39l5.89,9.89.3,16.46c.34,18.79,1.25,22.97,5.21,23.84,1.47.32,4.37,1.22,6.44,2,4.78,1.8,7.9,1.79,12.25-.03,4.23-1.77,3.84-3.42-1.54-6.44-4.45-2.51-5.72-4.04-4.16-5,.75-.46.77-1.87.06-4.64-.55-2.19-1.38-10.95-1.84-19.47-.62-11.63-1.36-16.99-2.95-21.46l-2.12-5.95,3.01,2.89c1.66,1.59,3.02,3.48,3.02,4.2s.41,1.32.9,1.32c1.33,0,8.28,5.94,19.14,16.35,5.24,5.03,12.27,11.71,15.62,14.85,3.69,3.45,6.3,6.79,6.62,8.46.67,3.54-5.24,15.61-8.78,17.93-4.52,2.96-2.31,7.21,4.64,8.92,2.23.55,4.78-.9,16.58-9.42,7.91-5.71,14.45-11.18,15.12-12.64,1.1-2.41.79-2.99-4.48-8.52ZM92.5,50.95c-1.39-.63-.79-.72,2-.3,2.2.34,4.19.78,4.42.98.86.75-4.5.19-6.42-.68Zm10.13-10.98c-1.31,4.39-1.41,4.47-5.23,4.18-2.15-.16-5.47-.62-7.4-1.02-3.34-.71-3.48-.91-3.16-4.53.18-2.08,1.08-4.6,2-5.61,2.14-2.35,2.78-2.35,8.02.03,2.4,1.08,4.98,1.97,5.75,1.97s1.38.12,1.38.25c-.01.14-.62,2.27-1.36,4.73Zm49.18,48.55c-.66.66-16.33-13.92-17.11-15.92-1.07-2.74-.12-6.2,3.12-11.36,2.45-3.89,2.79-4.11,4.01-2.5.81,1.07,1.13,3.24.83,5.58-.51,3.98,1.59,10.68,3.35,10.68.55,0,.99.68.99,1.53s1.15,3.81,2.57,6.6c1.41,2.78,2.42,5.21,2.24,5.39Zm21.08,30.48c-.27,0-2.02-1.58-3.89-3.5-1.87-1.93-3.17-3.5-2.89-3.5s2.02,1.57,3.89,3.5c1.87,1.92,3.17,3.5,2.89,3.5Zm21.36,17.7c-1.56.58-7.09-3.8-14.25-11.31-5.05-5.29-4.8-5.15,3,1.75,4.68,4.14,9.4,7.88,10.5,8.31,1.27.49,1.54.95.75,1.25Z"/>
</svg>