<svg width="116" height="77" viewBox="0 0 116 77" fill="none" xmlns="http://www.w3.org/2000/svg">
<path d="M31.8058 26C31.8058 26 31.8178 25.664 31.8418 24.992C31.8658 24.32 31.8898 23.444 31.9138 22.364C31.9618 21.26 31.9978 20.084 32.0218 18.836C32.0458 17.588 32.0698 16.388 32.0938 15.236C32.1178 14.084 32.1298 13.1 32.1298 12.284C32.1298 11.444 32.1178 10.508 32.0938 9.476C32.0938 8.444 32.0818 7.412 32.0578 6.38C32.0578 5.324 32.0458 4.364 32.0218 3.5C32.0218 2.612 32.0098 1.904 31.9858 1.376C31.9858 0.847999 31.9858 0.583999 31.9858 0.583999L35.0098 0.512C35.0098 0.512 34.9858 0.835999 34.9378 1.484C34.9138 2.108 34.8778 2.972 34.8298 4.076C34.8058 5.156 34.7698 6.404 34.7218 7.82C34.6978 9.212 34.6858 10.676 34.6858 12.212C34.6858 13.748 34.6978 15.332 34.7218 16.964C34.7458 18.572 34.7578 20.06 34.7578 21.428C34.7818 22.796 34.8058 23.9 34.8298 24.74C34.8538 25.58 34.8658 26 34.8658 26H31.8058ZM24.3538 16.964L33.5338 16.712V19.268L24.3538 19.124V16.964ZM22.6258 25.928C22.6258 25.928 22.6378 25.568 22.6618 24.848C22.6858 24.104 22.6978 23.12 22.6978 21.896C22.7218 20.672 22.7458 19.316 22.7698 17.828C22.7938 16.34 22.8058 14.828 22.8058 13.292C22.8058 11.756 22.7818 10.256 22.7338 8.792C22.7098 7.328 22.6738 6.02 22.6258 4.868C22.6018 3.692 22.5658 2.756 22.5178 2.06C22.4938 1.364 22.4818 1.016 22.4818 1.016L25.5058 0.872C25.5058 0.872 25.4938 1.172 25.4698 1.772C25.4698 2.348 25.4578 3.116 25.4338 4.076C25.4338 5.012 25.4218 6.044 25.3978 7.172C25.3978 8.276 25.3858 9.368 25.3618 10.448C25.3618 11.528 25.3618 12.488 25.3618 13.328C25.3618 14.168 25.3618 15.14 25.3618 16.244C25.3858 17.324 25.4098 18.428 25.4338 19.556C25.4578 20.684 25.4698 21.728 25.4698 22.688C25.4938 23.648 25.5058 24.428 25.5058 25.028C25.5298 25.604 25.5418 25.892 25.5418 25.892L22.6258 25.928ZM44.8822 26.36C43.5382 26.36 42.4822 25.964 41.7142 25.172C40.9462 24.38 40.3942 23.336 40.0582 22.04C39.8662 21.176 39.7222 20.228 39.6262 19.196C39.5302 18.164 39.4822 17.096 39.4822 15.992C39.4822 15.272 39.5062 14.588 39.5542 13.94C39.6262 13.268 39.7102 12.632 39.8062 12.032C39.9262 11.432 40.0822 10.868 40.2742 10.34C40.6822 9.164 41.2942 8.228 42.1102 7.532C42.9262 6.836 44.0062 6.488 45.3502 6.488C46.6702 6.488 47.7022 6.896 48.4462 7.712C49.1902 8.528 49.7302 9.596 50.0662 10.916C50.2822 11.684 50.4262 12.524 50.4982 13.436C50.5942 14.348 50.6422 15.284 50.6422 16.244C50.6422 17.324 50.6062 18.356 50.5342 19.34C50.4622 20.3 50.3182 21.188 50.1022 22.004C49.8862 22.892 49.5622 23.672 49.1302 24.344C48.6982 24.992 48.1342 25.496 47.4382 25.856C46.7662 26.192 45.9142 26.36 44.8822 26.36ZM45.1342 24.236C46.0222 24.236 46.6822 23.96 47.1142 23.408C47.5462 22.832 47.8462 22.088 48.0142 21.176C48.1102 20.744 48.1702 20.3 48.1942 19.844C48.2422 19.388 48.2662 18.92 48.2662 18.44C48.2902 17.936 48.3022 17.432 48.3022 16.928C48.3022 16.016 48.2782 15.116 48.2302 14.228C48.1822 13.34 48.0742 12.524 47.9062 11.78C47.7142 10.844 47.4022 10.076 46.9702 9.476C46.5382 8.876 45.9262 8.576 45.1342 8.576C44.6542 8.576 44.2342 8.696 43.8742 8.936C43.5382 9.152 43.2502 9.452 43.0102 9.836C42.7702 10.22 42.5662 10.676 42.3982 11.204C42.2542 11.708 42.1342 12.272 42.0382 12.896C41.9662 13.496 41.9062 14.12 41.8582 14.768C41.8342 15.416 41.8222 16.052 41.8222 16.676C41.8222 17.18 41.8342 17.696 41.8582 18.224C41.8822 18.728 41.9182 19.22 41.9662 19.7C42.0142 20.156 42.0742 20.6 42.1462 21.032C42.3382 21.968 42.6622 22.736 43.1182 23.336C43.5742 23.936 44.2462 24.236 45.1342 24.236ZM59.6068 26.36C58.6708 26.36 57.9148 26.216 57.3388 25.928C56.7628 25.64 56.3068 25.244 55.9708 24.74C55.6588 24.212 55.4428 23.612 55.3228 22.94C55.2028 22.268 55.1428 21.548 55.1428 20.78C55.1428 20.3 55.1428 19.772 55.1428 19.196C55.1668 18.62 55.1788 17.996 55.1788 17.324C55.2028 16.652 55.2268 15.956 55.2508 15.236C55.2748 14.468 55.2988 13.688 55.3228 12.896C55.3468 12.08 55.3708 11.288 55.3948 10.52C55.4188 9.728 55.4308 8.948 55.4308 8.18C55.4548 7.412 55.4788 6.656 55.5028 5.912C55.5268 5.168 55.5388 4.46 55.5388 3.788L58.3108 3.5C58.2388 4.148 58.1668 4.928 58.0948 5.84C58.0468 6.728 57.9868 7.724 57.9148 8.828C57.8668 9.908 57.8068 11.012 57.7348 12.14C57.6868 13.268 57.6388 14.372 57.5908 15.452C57.5428 16.46 57.5068 17.384 57.4828 18.224C57.4588 19.04 57.4468 19.712 57.4468 20.24C57.4468 21.128 57.4948 21.884 57.5908 22.508C57.7108 23.132 57.9268 23.612 58.2388 23.948C58.5508 24.26 59.0068 24.416 59.6068 24.416C60.4468 24.416 61.0468 24.224 61.4068 23.84C61.7908 23.432 62.0308 22.904 62.1268 22.256C62.2468 21.584 62.3068 20.852 62.3068 20.06C62.3068 19.82 62.2948 19.58 62.2708 19.34C62.2708 19.076 62.2588 18.812 62.2348 18.548C62.2108 18.284 62.1868 18.02 62.1628 17.756L64.3228 17.252C64.3708 17.756 64.4068 18.248 64.4308 18.728C64.4788 19.208 64.5028 19.676 64.5028 20.132C64.5028 21.38 64.3348 22.472 63.9988 23.408C63.6628 24.32 63.1348 25.04 62.4148 25.568C61.6948 26.096 60.7588 26.36 59.6068 26.36ZM53.3068 9.008L53.5228 6.92C53.4748 6.92 53.6548 6.92 54.0628 6.92C54.4948 6.92 55.0108 6.932 55.6108 6.956C56.2348 6.956 56.7988 6.956 57.3028 6.956C57.8308 6.956 58.1428 6.956 58.2388 6.956C58.6468 6.956 59.1148 6.956 59.6428 6.956C60.1948 6.932 60.7588 6.92 61.3348 6.92C61.9108 6.896 62.4628 6.884 62.9908 6.884C63.5428 6.86 64.0348 6.848 64.4668 6.848L64.2508 8.684C63.9868 8.684 63.6868 8.696 63.3508 8.72C63.0148 8.72 62.6548 8.72 62.2708 8.72C61.9108 8.72 61.5268 8.732 61.1188 8.756C60.7348 8.756 60.3508 8.768 59.9668 8.792C59.5828 8.792 59.2228 8.792 58.8868 8.792C58.3348 8.792 57.7108 8.816 57.0148 8.864C56.3188 8.888 55.6468 8.912 54.9988 8.936C54.3508 8.96 53.7868 8.984 53.3068 9.008ZM73.3948 26.432C72.0268 26.432 70.9588 26.108 70.1908 25.46C69.4468 24.788 68.9068 23.84 68.5708 22.616C68.3308 21.752 68.1628 20.768 68.0668 19.664C67.9948 18.56 67.9588 17.348 67.9588 16.028C67.9588 15.068 67.9948 14.156 68.0668 13.292C68.1628 12.428 68.3068 11.648 68.4988 10.952C68.7628 10.04 69.1108 9.26 69.5428 8.612C69.9748 7.964 70.5388 7.46 71.2348 7.1C71.9308 6.74 72.7828 6.56 73.7908 6.56C74.9428 6.56 75.8548 6.8 76.5268 7.28C77.1988 7.76 77.6788 8.444 77.9668 9.332C78.2788 10.196 78.4348 11.252 78.4348 12.5C78.4348 13.028 78.4108 13.592 78.3628 14.192C78.3148 14.768 78.2428 15.38 78.1468 16.028C78.0748 16.652 77.9788 17.312 77.8588 18.008L75.7708 16.172C75.8428 15.62 75.9148 15.104 75.9868 14.624C76.0588 14.12 76.1068 13.652 76.1308 13.22C76.1788 12.764 76.2028 12.344 76.2028 11.96C76.2028 10.832 76.0108 9.98 75.6268 9.404C75.2428 8.828 74.5588 8.54 73.5748 8.54C72.7348 8.54 72.0868 8.852 71.6308 9.476C71.1988 10.1 70.8748 10.892 70.6588 11.852C70.5868 12.26 70.5268 12.704 70.4788 13.184C70.4308 13.64 70.3948 14.12 70.3708 14.624C70.3468 15.104 70.3348 15.584 70.3348 16.064C70.3348 16.808 70.3348 17.516 70.3348 18.188C70.3588 18.836 70.3828 19.448 70.4068 20.024C70.4548 20.576 70.5268 21.092 70.6228 21.572C70.8148 22.484 71.1268 23.192 71.5588 23.696C72.0148 24.176 72.6748 24.416 73.5388 24.416C74.4988 24.416 75.1708 24.2 75.5548 23.768C75.9628 23.312 76.1668 22.712 76.1668 21.968C76.1668 21.752 76.1548 21.536 76.1308 21.32C76.1068 21.08 76.0708 20.828 76.0228 20.564L78.1468 20.816C78.1948 21.032 78.2188 21.248 78.2188 21.464C78.2428 21.68 78.2548 21.908 78.2548 22.148C78.2548 22.964 78.0868 23.696 77.7508 24.344C77.4148 24.992 76.8868 25.508 76.1668 25.892C75.4708 26.252 74.5468 26.432 73.3948 26.432ZM68.9308 18.26L68.8948 16.136L77.8588 16.064V18.008C77.8588 18.008 77.6668 18.008 77.2828 18.008C76.9228 18.008 76.4308 18.02 75.8068 18.044C75.2068 18.068 74.5108 18.092 73.7188 18.116C72.9508 18.116 72.1468 18.128 71.3068 18.152C70.4908 18.176 69.6988 18.212 68.9308 18.26ZM82.6676 25.928C82.6916 25.376 82.7036 24.632 82.7036 23.696C82.7276 22.76 82.7396 21.716 82.7396 20.564C82.7636 19.388 82.7756 18.164 82.7756 16.892C82.7756 15.62 82.7756 14.372 82.7756 13.148C82.7756 12.212 82.7756 11.192 82.7756 10.088C82.7756 8.984 82.7636 7.88 82.7396 6.776C82.7396 5.648 82.7276 4.58 82.7036 3.572C82.7036 2.564 82.7036 1.676 82.7036 0.907999L85.3676 0.872C85.3436 1.616 85.3076 2.492 85.2596 3.5C85.2116 4.484 85.1636 5.54 85.1156 6.668C85.0916 7.796 85.0676 8.912 85.0436 10.016C85.0196 11.12 85.0076 12.152 85.0076 13.112C85.0076 14.384 85.0196 15.8 85.0436 17.36C85.0916 18.896 85.1396 20.396 85.1876 21.86C85.2596 23.324 85.3196 24.584 85.3676 25.64L82.6676 25.928ZM11.9276 76.216C11.6876 74.92 11.4236 73.588 11.1356 72.22C10.8476 70.828 10.5596 69.424 10.2716 68.008C9.98359 66.568 9.68359 65.128 9.37159 63.688C9.17959 62.776 8.98759 61.864 8.79559 60.952C8.60359 60.016 8.41159 59.104 8.21959 58.216C8.05159 57.304 7.88359 56.404 7.71559 55.516C7.54759 54.628 7.37959 53.752 7.21159 52.888L5.44759 50.728L9.33559 50.656C9.45559 51.4 9.59959 52.24 9.76759 53.176C9.95959 54.112 10.1516 55.132 10.3436 56.236C10.5596 57.316 10.7876 58.444 11.0276 59.62C11.2676 60.772 11.5076 61.948 11.7476 63.148C12.0836 64.732 12.4196 66.304 12.7556 67.864C13.1156 69.424 13.4516 70.9 13.7636 72.292C14.0996 73.684 14.3996 74.932 14.6636 76.036L11.9276 76.216ZM2.60359 70.204V67.72L11.8196 67.9V69.916L2.60359 70.204ZM2.60359 75.82L0.0835938 75.784C0.347594 74.728 0.623594 73.516 0.911594 72.148C1.22359 70.78 1.54759 69.328 1.88359 67.792C2.21959 66.232 2.55559 64.672 2.89159 63.112C3.25159 61.528 3.58759 59.98 3.89959 58.468C4.21159 56.956 4.49959 55.54 4.76359 54.22C5.02759 52.876 5.25559 51.712 5.44759 50.728L9.33559 50.656L7.42759 53.104C7.18759 54.184 6.93559 55.3 6.67159 56.452C6.43159 57.604 6.17959 58.768 5.91559 59.944C5.67559 61.096 5.43559 62.26 5.19559 63.436C4.90759 64.876 4.60759 66.304 4.29559 67.72C4.00759 69.136 3.71959 70.528 3.43159 71.896C3.16759 73.24 2.89159 74.548 2.60359 75.82ZM18.0504 75.928C18.0744 75.376 18.0864 74.632 18.0864 73.696C18.1104 72.76 18.1224 71.716 18.1224 70.564C18.1464 69.388 18.1584 68.164 18.1584 66.892C18.1584 65.62 18.1584 64.372 18.1584 63.148C18.1584 62.212 18.1584 61.192 18.1584 60.088C18.1584 58.984 18.1464 57.88 18.1224 56.776C18.1224 55.648 18.1104 54.58 18.0864 53.572C18.0864 52.564 18.0864 51.676 18.0864 50.908L20.7504 50.872C20.7264 51.616 20.6904 52.492 20.6424 53.5C20.5944 54.484 20.5464 55.54 20.4984 56.668C20.4744 57.796 20.4504 58.912 20.4264 60.016C20.4024 61.12 20.3904 62.152 20.3904 63.112C20.3904 64.384 20.4024 65.8 20.4264 67.36C20.4744 68.896 20.5224 70.396 20.5704 71.86C20.6424 73.324 20.7024 74.584 20.7504 75.64L18.0504 75.928ZM29.2458 76.504L26.4018 76.108C26.4498 75.436 26.4978 74.584 26.5458 73.552C26.5938 72.496 26.6298 71.344 26.6538 70.096C26.7018 68.824 26.7258 67.552 26.7258 66.28C26.7258 65.176 26.7258 64.24 26.7258 63.472C26.7258 62.704 26.7258 62.008 26.7258 61.384C26.7258 60.736 26.7258 60.064 26.7258 59.368C26.7258 58.672 26.7258 57.832 26.7258 56.848C26.7258 55.456 26.9178 54.268 27.3018 53.284C27.7098 52.3 28.2978 51.544 29.0658 51.016C29.8338 50.488 30.7698 50.224 31.8738 50.224C32.3778 50.224 32.9058 50.284 33.4578 50.404C34.0338 50.5 34.6338 50.668 35.2578 50.908L34.5378 52.924C33.9858 52.708 33.4818 52.552 33.0258 52.456C32.5698 52.336 32.1618 52.276 31.8018 52.276C30.8418 52.276 30.1698 52.624 29.7858 53.32C29.4258 54.016 29.2218 55 29.1738 56.272C29.1258 57.856 29.0898 59.188 29.0658 60.268C29.0418 61.348 29.0178 62.344 28.9938 63.256C28.9938 64.144 28.9938 65.128 28.9938 66.208C28.9938 67.456 29.0058 68.74 29.0298 70.06C29.0538 71.356 29.0898 72.568 29.1378 73.696C29.1858 74.824 29.2218 75.76 29.2458 76.504ZM23.9178 58.972L23.8818 56.956C24.3378 56.956 24.8778 56.968 25.5018 56.992C26.1258 56.992 26.7618 57.004 27.4098 57.028C28.0818 57.028 28.6938 57.028 29.2458 57.028C29.7978 57.028 30.3738 57.028 30.9738 57.028C31.5738 57.004 32.1498 56.992 32.7018 56.992C33.2538 56.968 33.7098 56.956 34.0698 56.956L33.4938 58.828C33.2058 58.828 32.8338 58.828 32.3778 58.828C31.9218 58.828 31.4178 58.828 30.8658 58.828C30.3138 58.828 29.7498 58.84 29.1738 58.864C28.6218 58.864 28.0098 58.876 27.3378 58.9C26.6898 58.9 26.0658 58.912 25.4658 58.936C24.8658 58.936 24.3498 58.948 23.9178 58.972ZM44.3906 76.36C44.1506 76.048 43.9586 75.7 43.8146 75.316C43.6946 74.908 43.5986 74.452 43.5266 73.948C43.4546 73.444 43.4066 72.88 43.3826 72.256C43.3586 71.632 43.3466 70.948 43.3466 70.204C43.3466 69.46 43.3466 68.644 43.3466 67.756C43.3466 67.252 43.3466 66.748 43.3466 66.244C43.3466 65.74 43.3466 65.236 43.3466 64.732C43.3706 64.228 43.3826 63.724 43.3826 63.22C43.3826 62.716 43.3826 62.212 43.3826 61.708C43.3826 60.748 43.2506 60.028 42.9866 59.548C42.7226 59.068 42.3746 58.744 41.9426 58.576C41.5346 58.384 41.0906 58.288 40.6106 58.288C39.7466 58.288 39.1226 58.612 38.7386 59.26C38.3786 59.884 38.1986 60.604 38.1986 61.42C38.1986 61.66 38.2106 61.912 38.2346 62.176C38.2826 62.416 38.3306 62.656 38.3786 62.896L36.3266 63.58C36.2306 63.196 36.1586 62.824 36.1106 62.464C36.0866 62.104 36.0746 61.756 36.0746 61.42C36.0746 60.46 36.2546 59.62 36.6146 58.9C36.9986 58.156 37.5506 57.58 38.2706 57.172C38.9906 56.74 39.8666 56.524 40.8986 56.524C41.8346 56.524 42.6026 56.668 43.2026 56.956C43.8026 57.244 44.2826 57.64 44.6426 58.144C45.0026 58.624 45.2546 59.2 45.3986 59.872C45.5426 60.52 45.6146 61.216 45.6146 61.96C45.6146 62.944 45.6146 63.856 45.6146 64.696C45.6146 65.536 45.6146 66.34 45.6146 67.108C45.6146 67.876 45.6146 68.68 45.6146 69.52C45.6146 70.336 45.6146 71.224 45.6146 72.184C45.6146 72.952 45.6866 73.588 45.8306 74.092C45.9746 74.596 46.2026 75.088 46.5146 75.568L44.3906 76.36ZM39.3866 76.18C38.5946 76.18 37.9226 75.988 37.3706 75.604C36.8186 75.22 36.3986 74.692 36.1106 74.02C35.8226 73.348 35.6786 72.568 35.6786 71.68C35.6786 70.648 35.8706 69.784 36.2546 69.088C36.6386 68.368 37.1306 67.756 37.7306 67.252C38.3546 66.724 39.0146 66.232 39.7106 65.776C40.3106 65.392 40.8866 65.02 41.4386 64.66C42.0146 64.276 42.4826 63.856 42.8426 63.4C43.2026 62.92 43.3826 62.356 43.3826 61.708L44.6786 61.96C44.6786 62.8 44.5106 63.52 44.1746 64.12C43.8626 64.696 43.4186 65.212 42.8426 65.668C42.2906 66.124 41.6426 66.604 40.8986 67.108C40.3226 67.468 39.8066 67.864 39.3506 68.296C38.9186 68.728 38.5706 69.208 38.3066 69.736C38.0426 70.24 37.9106 70.852 37.9106 71.572C37.9106 72.1 37.9586 72.556 38.0546 72.94C38.1506 73.324 38.3306 73.624 38.5946 73.84C38.8586 74.032 39.2186 74.128 39.6746 74.128C40.2506 74.128 40.7546 73.984 41.1866 73.696C41.6426 73.384 42.0266 72.952 42.3386 72.4C42.6746 71.848 42.9266 71.188 43.0946 70.42C43.2626 69.628 43.3466 68.74 43.3466 67.756L44.4986 65.488C44.4986 66.928 44.4506 68.224 44.3546 69.376C44.2586 70.528 44.0906 71.536 43.8506 72.4C43.6106 73.24 43.2986 73.948 42.9146 74.524C42.5306 75.076 42.0386 75.496 41.4386 75.784C40.8626 76.048 40.1786 76.18 39.3866 76.18ZM60.4609 68.404L60.3169 66.064C61.5169 66.064 62.5729 65.992 63.4849 65.848C64.3969 65.68 65.1649 65.38 65.7889 64.948C66.4129 64.492 66.8809 63.844 67.1929 63.004C67.5289 62.14 67.6969 61.024 67.6969 59.656C67.6969 57.808 67.5529 56.368 67.2649 55.336C66.9769 54.304 66.4609 53.584 65.7169 53.176C64.9729 52.744 63.9289 52.528 62.5849 52.528C62.2729 52.528 61.9489 52.54 61.6129 52.564C61.2769 52.564 60.9169 52.588 60.5329 52.636C60.1729 52.66 59.7769 52.696 59.3449 52.744L58.5529 50.44C58.9849 50.416 59.3929 50.392 59.7769 50.368C60.1609 50.344 60.5329 50.332 60.8929 50.332C61.2769 50.308 61.6369 50.296 61.9729 50.296C63.9409 50.296 65.5249 50.548 66.7249 51.052C67.9249 51.532 68.8009 52.444 69.3529 53.788C69.9289 55.108 70.2169 57.028 70.2169 59.548C70.2169 61.78 69.8209 63.544 69.0289 64.84C68.2369 66.136 67.1089 67.06 65.6449 67.612C64.1809 68.14 62.4529 68.404 60.4609 68.404ZM58.5169 76.216C58.5409 75.208 58.5649 73.972 58.5889 72.508C58.6129 71.044 58.6249 69.496 58.6249 67.864C58.6489 66.208 58.6609 64.636 58.6609 63.148C58.6609 61.636 58.6489 60.088 58.6249 58.504C58.6249 56.896 58.6129 55.384 58.5889 53.968C58.5889 52.552 58.5769 51.376 58.5529 50.44L61.4329 50.692C61.4089 51.364 61.3849 52.12 61.3609 52.96C61.3609 53.776 61.3489 54.628 61.3249 55.516C61.3009 56.404 61.2769 57.292 61.2529 58.18C61.2529 59.068 61.2409 59.932 61.2169 60.772C61.2169 61.612 61.2169 62.38 61.2169 63.076C61.2169 63.676 61.2169 64.396 61.2169 65.236C61.2169 66.052 61.2169 66.94 61.2169 67.9C61.2409 68.836 61.2529 69.796 61.2529 70.78C61.2769 71.74 61.2889 72.676 61.2889 73.588C61.3129 74.476 61.3369 75.304 61.3609 76.072L58.5169 76.216ZM73.7379 75.928C73.7619 75.376 73.7739 74.632 73.7739 73.696C73.7979 72.76 73.8099 71.716 73.8099 70.564C73.8339 69.388 73.8459 68.164 73.8459 66.892C73.8459 65.62 73.8459 64.372 73.8459 63.148C73.8459 62.212 73.8459 61.204 73.8459 60.124C73.8459 59.044 73.8339 57.976 73.8099 56.92C73.8099 55.84 73.7979 54.82 73.7739 53.86C73.7739 52.876 73.7739 52.024 73.7739 51.304L76.4379 51.016C76.4139 51.616 76.3779 52.288 76.3299 53.032C76.3059 53.776 76.2699 54.58 76.2219 55.444C76.1979 56.284 76.1739 57.148 76.1499 58.036C76.1259 58.924 76.1019 59.8 76.0779 60.664C76.0779 61.528 76.0779 62.344 76.0779 63.112C76.0779 64.384 76.0899 65.812 76.1139 67.396C76.1619 68.98 76.2099 70.528 76.2579 72.04C76.3299 73.552 76.3899 74.848 76.4379 75.928H73.7379ZM88.1013 76V71.932L87.9573 62.248C87.9333 60.832 87.6693 59.824 87.1653 59.224C86.6613 58.6 86.0493 58.288 85.3293 58.288C84.6093 58.288 84.0213 58.576 83.5653 59.152C83.1333 59.728 82.9173 60.508 82.9173 61.492C82.9173 61.78 82.9413 62.092 82.9893 62.428C83.0373 62.764 83.1093 63.112 83.2053 63.472L81.1173 63.58C81.0213 63.172 80.9493 62.776 80.9013 62.392C80.8533 61.984 80.8293 61.6 80.8293 61.24C80.8293 60.232 81.0093 59.38 81.3693 58.684C81.7533 57.988 82.2933 57.46 82.9893 57.1C83.6853 56.716 84.4893 56.524 85.4013 56.524C86.4093 56.524 87.2253 56.716 87.8493 57.1C88.4973 57.46 88.9893 57.952 89.3253 58.576C89.6613 59.2 89.8893 59.908 90.0093 60.7C90.1293 61.468 90.1893 62.248 90.1893 63.04L90.1533 66.46L90.3333 76H88.1013ZM84.1053 76.252C83.3133 76.252 82.6293 76.06 82.0533 75.676C81.4773 75.268 81.0333 74.728 80.7213 74.056C80.4093 73.36 80.2533 72.568 80.2533 71.68C80.2533 71.008 80.3493 70.408 80.5413 69.88C80.7573 69.352 81.0333 68.872 81.3693 68.44C81.7053 68.008 82.0893 67.612 82.5213 67.252C82.9773 66.892 83.4573 66.556 83.9613 66.244C84.4413 65.908 84.9093 65.608 85.3653 65.344C85.8453 65.08 86.2773 64.804 86.6613 64.516C87.0453 64.204 87.3573 63.868 87.5973 63.508C87.8373 63.148 87.9573 62.728 87.9573 62.248L89.2533 62.5C89.2533 63.268 89.0973 63.928 88.7853 64.48C88.4733 65.032 88.0413 65.536 87.4893 65.992C86.9613 66.424 86.3373 66.868 85.6173 67.324C85.0173 67.708 84.4773 68.104 83.9973 68.512C83.5413 68.92 83.1693 69.376 82.8813 69.88C82.6173 70.36 82.4853 70.924 82.4853 71.572C82.4853 72.1 82.5453 72.568 82.6653 72.976C82.7853 73.36 82.9893 73.66 83.2773 73.876C83.5653 74.092 83.9373 74.2 84.3933 74.2C85.1613 74.2 85.8093 73.936 86.3373 73.408C86.8893 72.88 87.3093 72.136 87.5973 71.176C87.9093 70.192 88.0653 69.052 88.0653 67.756L89.2173 65.488C89.2173 67.312 89.1333 68.896 88.9653 70.24C88.8213 71.584 88.5573 72.712 88.1733 73.624C87.7893 74.512 87.2613 75.172 86.5893 75.604C85.9413 76.036 85.1133 76.252 84.1053 76.252ZM94.6165 75.64L92.8885 73.768C93.3205 72.952 93.7285 72.16 94.1125 71.392C94.4965 70.624 94.8925 69.82 95.3005 68.98C95.7325 68.14 96.2005 67.228 96.7045 66.244C97.1365 65.38 97.5565 64.516 97.9645 63.652C98.3965 62.764 98.8405 61.828 99.2965 60.844C99.7525 59.86 100.257 58.78 100.809 57.604L102.717 59.26C102.237 60.172 101.781 61.048 101.349 61.888C100.917 62.704 100.485 63.532 100.053 64.372C99.6205 65.188 99.1765 66.064 98.7205 67C98.2165 67.96 97.7365 68.908 97.2805 69.844C96.8485 70.756 96.4165 71.692 95.9845 72.652C95.5525 73.588 95.0965 74.584 94.6165 75.64ZM92.9245 76.144L92.8885 73.768C92.8885 73.768 93.0925 73.768 93.5005 73.768C93.9085 73.768 94.4125 73.78 95.0125 73.804C95.6125 73.804 96.2245 73.804 96.8485 73.804C97.4965 73.804 98.0365 73.804 98.4685 73.804C98.9005 73.804 99.3805 73.804 99.9085 73.804C100.437 73.78 100.929 73.768 101.385 73.768C101.865 73.744 102.261 73.732 102.573 73.732C102.885 73.708 103.041 73.696 103.041 73.696L103.005 76C103.005 76 102.825 76 102.465 76C102.129 76 101.685 76 101.133 76C100.605 76 100.053 76 99.4765 76C98.9005 76 98.3845 76 97.9285 76C97.4725 76 96.9565 76 96.3805 76C95.8285 76.024 95.2885 76.048 94.7605 76.072C94.2325 76.096 93.7885 76.108 93.4285 76.108C93.0925 76.132 92.9245 76.144 92.9245 76.144ZM93.2125 59.26L93.2485 56.992C93.2485 56.992 93.4165 56.992 93.7525 56.992C94.0885 56.992 94.5085 56.992 95.0125 56.992C95.5405 56.992 96.0805 56.992 96.6325 56.992C97.2085 56.992 97.7245 56.992 98.1805 56.992C98.7325 56.992 99.2605 56.992 99.7645 56.992C100.293 56.968 100.773 56.956 101.205 56.956C101.637 56.932 101.973 56.92 102.213 56.92C102.477 56.896 102.609 56.884 102.609 56.884L102.717 59.26C102.717 59.26 102.537 59.26 102.177 59.26C101.817 59.236 101.361 59.224 100.809 59.224C100.257 59.224 99.6925 59.224 99.1165 59.224C98.5405 59.2 98.0365 59.188 97.6045 59.188C97.1725 59.188 96.6925 59.2 96.1645 59.224C95.6605 59.224 95.1805 59.224 94.7245 59.224C94.2925 59.224 93.9325 59.236 93.6445 59.26C93.3565 59.26 93.2125 59.26 93.2125 59.26ZM113.613 76.36C113.373 76.048 113.181 75.7 113.037 75.316C112.917 74.908 112.821 74.452 112.749 73.948C112.677 73.444 112.629 72.88 112.605 72.256C112.581 71.632 112.569 70.948 112.569 70.204C112.569 69.46 112.569 68.644 112.569 67.756C112.569 67.252 112.569 66.748 112.569 66.244C112.569 65.74 112.569 65.236 112.569 64.732C112.593 64.228 112.605 63.724 112.605 63.22C112.605 62.716 112.605 62.212 112.605 61.708C112.605 60.748 112.473 60.028 112.209 59.548C111.945 59.068 111.597 58.744 111.165 58.576C110.757 58.384 110.313 58.288 109.833 58.288C108.969 58.288 108.345 58.612 107.961 59.26C107.601 59.884 107.421 60.604 107.421 61.42C107.421 61.66 107.433 61.912 107.457 62.176C107.505 62.416 107.553 62.656 107.601 62.896L105.549 63.58C105.453 63.196 105.381 62.824 105.333 62.464C105.309 62.104 105.297 61.756 105.297 61.42C105.297 60.46 105.477 59.62 105.837 58.9C106.221 58.156 106.773 57.58 107.493 57.172C108.213 56.74 109.089 56.524 110.121 56.524C111.057 56.524 111.825 56.668 112.425 56.956C113.025 57.244 113.505 57.64 113.865 58.144C114.225 58.624 114.477 59.2 114.621 59.872C114.765 60.52 114.837 61.216 114.837 61.96C114.837 62.944 114.837 63.856 114.837 64.696C114.837 65.536 114.837 66.34 114.837 67.108C114.837 67.876 114.837 68.68 114.837 69.52C114.837 70.336 114.837 71.224 114.837 72.184C114.837 72.952 114.909 73.588 115.053 74.092C115.197 74.596 115.425 75.088 115.737 75.568L113.613 76.36ZM108.609 76.18C107.817 76.18 107.145 75.988 106.593 75.604C106.041 75.22 105.621 74.692 105.333 74.02C105.045 73.348 104.901 72.568 104.901 71.68C104.901 70.648 105.093 69.784 105.477 69.088C105.861 68.368 106.353 67.756 106.953 67.252C107.577 66.724 108.237 66.232 108.933 65.776C109.533 65.392 110.109 65.02 110.661 64.66C111.237 64.276 111.705 63.856 112.065 63.4C112.425 62.92 112.605 62.356 112.605 61.708L113.901 61.96C113.901 62.8 113.733 63.52 113.397 64.12C113.085 64.696 112.641 65.212 112.065 65.668C111.513 66.124 110.865 66.604 110.121 67.108C109.545 67.468 109.029 67.864 108.573 68.296C108.141 68.728 107.793 69.208 107.529 69.736C107.265 70.24 107.133 70.852 107.133 71.572C107.133 72.1 107.181 72.556 107.277 72.94C107.373 73.324 107.553 73.624 107.817 73.84C108.081 74.032 108.441 74.128 108.897 74.128C109.473 74.128 109.977 73.984 110.409 73.696C110.865 73.384 111.249 72.952 111.561 72.4C111.897 71.848 112.149 71.188 112.317 70.42C112.485 69.628 112.569 68.74 112.569 67.756L113.721 65.488C113.721 66.928 113.673 68.224 113.577 69.376C113.481 70.528 113.313 71.536 113.073 72.4C112.833 73.24 112.521 73.948 112.137 74.524C111.753 75.076 111.261 75.496 110.661 75.784C110.085 76.048 109.401 76.18 108.609 76.18Z" fill="white"/>
</svg>
