<svg width="200" height="74" viewBox="0 0 200 74" fill="none" xmlns="http://www.w3.org/2000/svg">
<path d="M4.98763 10.008L0.523625 7.92C2.10763 3.636 5.63563 1.476 11.1076 1.476C13.7716 1.476 15.8956 2.088 17.5156 3.276C19.1356 4.5 19.9636 6.12 19.9636 8.208C19.9636 10.62 18.8476 12.348 16.6876 13.356C19.4236 14.364 20.7916 16.308 20.7916 19.188C20.7916 21.636 19.9276 23.58 18.1996 25.056C16.4716 26.568 14.1316 27.288 11.1796 27.288C8.37163 27.288 6.06763 26.82 4.23163 25.812C2.39563 24.84 1.02763 23.112 0.091625 20.628L4.98763 18.432C5.34763 19.512 5.99563 20.412 7.00363 21.06C7.97563 21.744 9.16363 22.068 10.6036 22.068C11.9356 22.068 13.0156 21.816 13.8076 21.312C14.5996 20.808 15.0316 20.088 15.0316 19.188C15.0316 17.496 13.6636 16.632 10.9636 16.632H7.29163V11.592H10.2436C11.4676 11.592 12.4036 11.376 13.1236 10.872C13.8436 10.404 14.2036 9.792 14.2036 9.072C14.2036 7.488 12.9796 6.696 10.6036 6.696C7.86763 6.696 5.99563 7.812 4.98763 10.008ZM44.4588 27V13.14H39.3828V13.644C39.3828 18.756 38.6628 22.428 37.2588 24.624C35.8188 26.82 33.5508 27.612 30.4548 27V22.32C31.3908 22.464 32.1468 22.32 32.6868 21.888C33.1908 21.492 33.6228 20.52 33.9468 19.008C34.2708 17.496 34.4508 15.3 34.4508 12.348V8.28H49.6788V27H44.4588ZM67.0688 20.376L70.2008 23.544C68.1848 26.064 65.5208 27.288 62.1368 27.288C59.0768 27.288 56.6288 26.424 54.7928 24.66C52.9208 22.896 52.0208 20.556 52.0208 17.604C52.0208 14.796 52.8488 12.456 54.5768 10.62C56.2688 8.82 58.6448 7.884 61.7408 7.884C64.3328 7.884 66.4568 8.676 68.1488 10.26C69.8048 11.844 70.6688 13.932 70.6688 16.488C70.6688 17.28 70.5608 18.288 70.3808 19.512H57.4928C57.9608 21.456 59.5448 22.428 62.2088 22.428C63.1448 22.428 64.0448 22.248 64.9448 21.888C65.8088 21.528 66.5288 21.024 67.0688 20.376ZM61.5608 12.564C59.5448 12.564 58.2488 13.392 57.6008 15.012H65.2688C64.8368 13.392 63.5768 12.564 61.5608 12.564ZM89.555 8.28V27H84.335V20.34C83.219 21.204 81.779 21.6 80.015 21.6C74.831 21.6 72.275 19.116 72.275 14.148V8.28H77.495V12.132C77.495 13.896 77.747 15.12 78.323 15.768C78.863 16.416 79.835 16.74 81.239 16.74C82.499 16.74 83.543 16.236 84.335 15.228V8.28H89.555ZM106.936 20.376L110.068 23.544C108.052 26.064 105.388 27.288 102.004 27.288C98.944 27.288 96.496 26.424 94.66 24.66C92.788 22.896 91.888 20.556 91.888 17.604C91.888 14.796 92.716 12.456 94.444 10.62C96.136 8.82 98.512 7.884 101.608 7.884C104.2 7.884 106.324 8.676 108.016 10.26C109.672 11.844 110.536 13.932 110.536 16.488C110.536 17.28 110.428 18.288 110.248 19.512H97.36C97.828 21.456 99.412 22.428 102.076 22.428C103.012 22.428 103.912 22.248 104.812 21.888C105.676 21.528 106.396 21.024 106.936 20.376ZM101.428 12.564C99.412 12.564 98.116 13.392 97.468 15.012H105.136C104.704 13.392 103.444 12.564 101.428 12.564ZM129.458 0.251999L130.358 4.968C129.206 5.544 127.514 5.94 125.318 6.192C123.122 6.48 121.61 6.768 120.818 7.056C118.37 7.992 117.038 9.684 116.786 12.06C117.434 11.196 118.37 10.548 119.558 10.08C120.71 9.612 122.006 9.36 123.374 9.36C125.75 9.36 127.766 10.116 129.422 11.556C131.042 12.996 131.87 15.084 131.87 17.784C131.87 20.628 131.006 22.932 129.278 24.696C127.55 26.496 125.246 27.36 122.366 27.36C119.27 27.36 116.786 26.388 114.914 24.444C113.042 22.5 112.142 19.728 112.142 16.128C112.142 12.708 112.61 9.936 113.618 7.848C114.626 5.76 116.21 4.14 118.442 3.024C119.774 2.376 121.718 1.872 124.238 1.512C126.758 1.188 128.522 0.755999 129.458 0.251999ZM117.542 16.992V17.568C117.542 18.864 117.974 19.98 118.874 20.988C119.774 21.996 120.926 22.5 122.33 22.5C123.698 22.5 124.742 22.104 125.426 21.312C126.11 20.52 126.47 19.476 126.47 18.108C126.47 16.956 126.11 16.02 125.426 15.3C124.742 14.58 123.734 14.22 122.438 14.22C120.206 14.22 118.586 15.156 117.542 16.992ZM146.586 27V19.98H139.422V27H134.202V8.28H139.422V15.12H146.586V8.28H151.806V27H146.586ZM155.05 27V8.28H160.27V13.248H162.646C165.526 13.248 167.614 13.896 168.91 15.156C170.206 16.452 170.854 18.072 170.854 20.088C170.854 22.068 170.17 23.724 168.802 25.02C167.434 26.352 165.274 27 162.394 27H155.05ZM162.358 18.108H160.27V22.14H162.322C163.438 22.14 164.23 21.996 164.734 21.672C165.202 21.348 165.454 20.844 165.454 20.124C165.454 19.404 165.202 18.9 164.734 18.576C164.23 18.288 163.438 18.108 162.358 18.108ZM171.898 27V8.28H177.118V27H171.898ZM199.514 8.28L192.35 17.352L199.838 27H193.358L189.074 21.276L184.646 27H178.382L185.87 17.388L178.742 8.28H185.186L189.182 13.356L193.214 8.28H199.514ZM50.7411 73V54.28H55.3491L61.1811 61.768L67.0851 54.28H71.3691V73H66.1491V63.424L61.2171 69.616L55.9611 63.316V73H50.7411ZM88.7602 66.376L91.8922 69.544C89.8762 72.064 87.2122 73.288 83.8282 73.288C80.7682 73.288 78.3202 72.424 76.4842 70.66C74.6122 68.896 73.7122 66.556 73.7122 63.604C73.7122 60.796 74.5402 58.456 76.2682 56.62C77.9602 54.82 80.3362 53.884 83.4322 53.884C86.0242 53.884 88.1482 54.676 89.8402 56.26C91.4962 57.844 92.3602 59.932 92.3602 62.488C92.3602 63.28 92.2522 64.288 92.0722 65.512H79.1842C79.6522 67.456 81.2362 68.428 83.9002 68.428C84.8362 68.428 85.7362 68.248 86.6362 67.888C87.5002 67.528 88.2202 67.024 88.7602 66.376ZM83.2522 58.564C81.2362 58.564 79.9402 59.392 79.2922 61.012H86.9602C86.5282 59.392 85.2682 58.564 83.2522 58.564ZM108.582 65.98L112.398 68.248C111.534 69.904 110.382 71.128 108.87 71.992C107.358 72.856 105.738 73.288 103.938 73.288C100.878 73.288 98.4304 72.424 96.5584 70.66C94.6864 68.896 93.7864 66.556 93.7864 63.604C93.7864 60.796 94.6864 58.492 96.5584 56.656C98.3944 54.82 100.77 53.884 103.686 53.884C105.81 53.884 107.61 54.316 109.086 55.18C110.562 56.044 111.606 57.16 112.254 58.564L108.366 61.084C107.214 59.536 105.738 58.744 104.01 58.744C102.57 58.744 101.382 59.212 100.518 60.076C99.6184 60.976 99.1864 62.164 99.1864 63.604C99.1864 64.972 99.6544 66.088 100.662 67.024C101.634 67.96 102.93 68.428 104.514 68.428C106.242 68.428 107.574 67.636 108.582 65.98ZM112.546 59.14V54.28H130.582V59.14H124.138V73H118.918V59.14H112.546ZM134.931 60.544L132.447 56.764C134.283 54.856 137.019 53.884 140.691 53.884C143.103 53.884 144.975 54.568 146.343 55.936C147.675 57.304 148.359 59.212 148.359 61.66V73H143.139V71.308C142.707 71.812 142.023 72.28 141.087 72.64C140.151 73.036 139.179 73.216 138.099 73.216C136.011 73.216 134.355 72.676 133.131 71.56C131.871 70.444 131.259 68.968 131.259 67.096C131.259 65.08 132.051 63.532 133.671 62.488C135.291 61.48 137.307 60.94 139.755 60.94C141.123 60.94 142.275 61.12 143.139 61.408C143.139 60.472 142.923 59.824 142.419 59.392C141.915 58.96 141.123 58.744 140.115 58.744C139.107 58.744 138.207 58.888 137.487 59.14C136.767 59.392 135.903 59.86 134.931 60.544ZM139.179 68.716C140.043 68.716 140.835 68.536 141.555 68.104C142.275 67.708 142.815 67.204 143.139 66.592V65.728C142.275 65.44 141.339 65.26 140.295 65.26C137.847 65.26 136.659 65.872 136.659 67.096C136.659 67.6 136.875 67.996 137.307 68.284C137.739 68.572 138.387 68.716 139.179 68.716Z" fill="white"/>
</svg>
