<svg width="132" height="27" viewBox="0 0 132 27" fill="none" xmlns="http://www.w3.org/2000/svg">
<path d="M0.318359 4.94L8.59836 0.799998H12.1264V26H6.72636V7.424L2.22636 9.476L0.318359 4.94ZM20.1341 9.008L15.6701 6.92C17.2541 2.636 20.7821 0.475998 26.2541 0.475998C28.9181 0.475998 31.0421 1.088 32.6621 2.276C34.2821 3.5 35.1101 5.12 35.1101 7.208C35.1101 9.62 33.9941 11.348 31.8341 12.356C34.5701 13.364 35.9381 15.308 35.9381 18.188C35.9381 20.636 35.0741 22.58 33.3461 24.056C31.6181 25.568 29.2781 26.288 26.3261 26.288C23.5181 26.288 21.2141 25.82 19.3781 24.812C17.5421 23.84 16.1741 22.112 15.2381 19.628L20.1341 17.432C20.4941 18.512 21.1421 19.412 22.1501 20.06C23.1221 20.744 24.3101 21.068 25.7501 21.068C27.0821 21.068 28.1621 20.816 28.9541 20.312C29.7461 19.808 30.1781 19.088 30.1781 18.188C30.1781 16.496 28.8101 15.632 26.1101 15.632H22.4381V10.592H25.3901C26.6141 10.592 27.5501 10.376 28.2701 9.872C28.9901 9.404 29.3501 8.792 29.3501 8.072C29.3501 6.488 28.1261 5.696 25.7501 5.696C23.0141 5.696 21.1421 6.812 20.1341 9.008ZM47.1493 26V7.28H52.3693V21.14H56.4013V7.28H61.6213V21.14H65.6533V7.28H70.8733V26H47.1493ZM74.1141 26V7.28H79.3341V13.976L85.9581 7.28H92.7261L84.2301 15.596L92.9061 26H86.2821L80.4861 18.908L79.3341 20.096V26H74.1141ZM91.636 16.604C91.636 13.796 92.572 11.456 94.444 9.62C96.316 7.82 98.764 6.884 101.752 6.884C104.704 6.884 107.152 7.82 109.06 9.62C110.968 11.456 111.94 13.796 111.94 16.604C111.94 19.412 110.968 21.752 109.06 23.552C107.152 25.388 104.704 26.288 101.752 26.288C98.836 26.288 96.424 25.388 94.516 23.552C92.572 21.752 91.636 19.412 91.636 16.604ZM97.036 16.604C97.036 18.008 97.468 19.16 98.332 20.06C99.196 20.996 100.348 21.428 101.752 21.428C103.192 21.428 104.344 20.996 105.208 20.132C106.072 19.268 106.54 18.116 106.54 16.604C106.54 15.128 106.072 13.94 105.172 13.076C104.236 12.212 103.12 11.744 101.752 11.744C100.384 11.744 99.232 12.176 98.368 13.04C97.468 13.904 97.036 15.092 97.036 16.604ZM125.84 26V12.14H120.764V12.644C120.764 17.756 120.044 21.428 118.64 23.624C117.2 25.82 114.932 26.612 111.836 26V21.32C112.772 21.464 113.528 21.32 114.068 20.888C114.572 20.492 115.004 19.52 115.328 18.008C115.652 16.496 115.832 14.3 115.832 11.348V7.28H131.06V26H125.84Z" fill="white"/>
</svg>
