<svg width="161" height="64" viewBox="0 0 161 64" fill="none" xmlns="http://www.w3.org/2000/svg">
<path d="M56.4301 6.1V20.608C56.4301 23.776 54.9421 25.36 51.9661 25.36H47.1781C44.2021 25.36 42.7141 23.776 42.7141 20.608V6.1C42.7141 2.932 44.2021 1.348 47.1781 1.348H51.9661C54.9421 1.348 56.4301 2.932 56.4301 6.1ZM51.3901 21.184V5.488C51.3901 5.296 51.3181 5.128 51.1741 4.984C51.0541 4.84 50.8981 4.768 50.7061 4.768H48.4381C48.2461 4.768 48.0781 4.84 47.9341 4.984C47.8141 5.128 47.7541 5.296 47.7541 5.488V21.184C47.7541 21.376 47.8141 21.544 47.9341 21.688C48.0781 21.832 48.2461 21.904 48.4381 21.904H50.7061C50.8981 21.904 51.0541 21.832 51.1741 21.688C51.3181 21.544 51.3901 21.376 51.3901 21.184ZM67.4596 7.072H68.3956V11.752H66.0196C65.2036 11.752 64.7956 12.172 64.7956 13.012V25H59.9716V7.432H64.3636V9.124C65.0596 7.756 66.0916 7.072 67.4596 7.072ZM75.4496 5.236C74.9456 5.74 74.3336 5.992 73.6136 5.992C72.8936 5.992 72.2696 5.74 71.7416 5.236C71.2136 4.708 70.9496 4.084 70.9496 3.364C70.9496 2.62 71.2136 1.996 71.7416 1.492C72.2696 0.963999 72.8936 0.7 73.6136 0.7C74.3336 0.7 74.9456 0.963999 75.4496 1.492C75.9776 1.996 76.2416 2.62 76.2416 3.364C76.2416 4.108 75.9776 4.732 75.4496 5.236ZM71.2016 25V7.432H76.0256V25H71.2016ZM87.945 7.072C90.921 7.072 92.409 8.656 92.409 11.824V17.512H84.237V21.184C84.237 21.376 84.297 21.544 84.417 21.688C84.561 21.832 84.729 21.904 84.921 21.904H86.901C87.093 21.904 87.249 21.832 87.369 21.688C87.513 21.544 87.585 21.376 87.585 21.184V19.24H92.409V20.608C92.409 23.776 90.921 25.36 87.945 25.36H83.877C80.901 25.36 79.413 23.776 79.413 20.608V11.824C79.413 8.656 80.901 7.072 83.877 7.072H87.945ZM84.237 14.344H87.585V11.104C87.585 10.912 87.513 10.744 87.369 10.6C87.249 10.456 87.093 10.384 86.901 10.384H84.921C84.729 10.384 84.561 10.456 84.417 10.6C84.297 10.744 84.237 10.912 84.237 11.104V14.344ZM99.8815 25H95.0575V7.432H99.4495V8.332C100.194 7.492 101.322 7.072 102.834 7.072H103.59C106.566 7.072 108.054 8.656 108.054 11.824V25H103.23V11.248C103.23 11.056 103.158 10.888 103.014 10.744C102.894 10.6 102.738 10.528 102.546 10.528H100.566C100.374 10.528 100.206 10.6 100.062 10.744C99.9415 10.888 99.8815 11.056 99.8815 11.248V25ZM117.743 22.228H119.183V25.36H115.799C112.823 25.36 111.335 23.776 111.335 20.608V3.616H116.159V7.432H119.183V10.924H116.159V20.5C116.159 21.172 116.291 21.628 116.555 21.868C116.819 22.108 117.215 22.228 117.743 22.228ZM9.52825 39.708C12.5043 39.708 13.9923 41.292 13.9923 44.46V49.104C13.9923 52.272 12.5043 53.856 9.52825 53.856H5.46025V63H0.42025V39.708H9.52825ZM8.95225 49.68V43.884C8.95225 43.692 8.88025 43.524 8.73625 43.38C8.61625 43.236 8.46025 43.164 8.26825 43.164H5.46025V50.4H8.26825C8.46025 50.4 8.61625 50.328 8.73625 50.184C8.88025 50.04 8.95225 49.872 8.95225 49.68ZM25.2707 45.432H29.3387V63H25.2707V61.704C24.5267 62.808 23.2907 63.36 21.5627 63.36H20.8067C17.8307 63.36 16.3427 61.776 16.3427 58.608V49.824C16.3427 46.656 17.8307 45.072 20.8067 45.072H21.5627C23.2907 45.072 24.5267 45.624 25.2707 46.728V45.432ZM24.5147 59.184V49.248C24.5147 49.056 24.4427 48.888 24.2987 48.744C24.1787 48.6 24.0227 48.528 23.8307 48.528H21.8507C21.6587 48.528 21.4907 48.6 21.3467 48.744C21.2267 48.888 21.1667 49.056 21.1667 49.248V59.184C21.1667 59.376 21.2267 59.544 21.3467 59.688C21.4907 59.832 21.6587 59.904 21.8507 59.904H23.8307C24.0227 59.904 24.1787 59.832 24.2987 59.688C24.4427 59.544 24.5147 59.376 24.5147 59.184ZM37.444 63H32.62V39.708H37.444V63ZM49.5988 45.432H53.6668V63H49.5988V61.704C48.8548 62.808 47.6188 63.36 45.8908 63.36H45.1348C42.1588 63.36 40.6708 61.776 40.6708 58.608V49.824C40.6708 46.656 42.1588 45.072 45.1348 45.072H45.8908C47.6188 45.072 48.8548 45.624 49.5988 46.728V45.432ZM48.8428 59.184V49.248C48.8428 49.056 48.7708 48.888 48.6268 48.744C48.5068 48.6 48.3508 48.528 48.1588 48.528H46.1788C45.9868 48.528 45.8188 48.6 45.6748 48.744C45.5548 48.888 45.4948 49.056 45.4948 49.248V59.184C45.4948 59.376 45.5548 59.544 45.6748 59.688C45.8188 59.832 45.9868 59.904 46.1788 59.904H48.1588C48.3508 59.904 48.5068 59.832 48.6268 59.688C48.7708 59.544 48.8428 59.376 48.8428 59.184ZM69.9441 52.344H65.1201V49.248C65.1201 49.056 65.0481 48.888 64.9041 48.744C64.7841 48.6 64.6281 48.528 64.4361 48.528H62.4561C62.2641 48.528 62.0961 48.6 61.9521 48.744C61.8321 48.888 61.7721 49.056 61.7721 49.248V59.184C61.7721 59.376 61.8321 59.544 61.9521 59.688C62.0961 59.832 62.2641 59.904 62.4561 59.904H64.4361C64.6281 59.904 64.7841 59.832 64.9041 59.688C65.0481 59.544 65.1201 59.376 65.1201 59.184V56.088H69.9441V58.608C69.9441 61.776 68.4561 63.36 65.4801 63.36H61.4121C58.4361 63.36 56.9481 61.776 56.9481 58.608V49.824C56.9481 46.656 58.4361 45.072 61.4121 45.072H65.4801C68.4561 45.072 69.9441 46.656 69.9441 49.824V52.344ZM81.5465 45.072C84.5225 45.072 86.0105 46.656 86.0105 49.824V55.512H77.8385V59.184C77.8385 59.376 77.8985 59.544 78.0185 59.688C78.1625 59.832 78.3305 59.904 78.5225 59.904H80.5025C80.6945 59.904 80.8505 59.832 80.9705 59.688C81.1145 59.544 81.1865 59.376 81.1865 59.184V57.24H86.0105V58.608C86.0105 61.776 84.5225 63.36 81.5465 63.36H77.4785C74.5025 63.36 73.0145 61.776 73.0145 58.608V49.824C73.0145 46.656 74.5025 45.072 77.4785 45.072H81.5465ZM77.8385 52.344H81.1865V49.104C81.1865 48.912 81.1145 48.744 80.9705 48.6C80.8505 48.456 80.6945 48.384 80.5025 48.384H78.5225C78.3305 48.384 78.1625 48.456 78.0185 48.6C77.8985 48.744 77.8385 48.912 77.8385 49.104V52.344ZM101.156 53.856V63H96.1164V39.708H101.156V49.464H105.152V39.708H110.192V63H105.152V53.856H101.156ZM126.616 49.824V58.608C126.616 61.776 125.128 63.36 122.152 63.36H118.084C115.108 63.36 113.62 61.776 113.62 58.608V49.824C113.62 46.656 115.108 45.072 118.084 45.072H122.152C125.128 45.072 126.616 46.656 126.616 49.824ZM121.792 59.616V48.78C121.792 48.588 121.72 48.42 121.576 48.276C121.456 48.132 121.3 48.06 121.108 48.06H119.128C118.936 48.06 118.768 48.132 118.624 48.276C118.504 48.42 118.444 48.588 118.444 48.78V59.616C118.444 59.808 118.504 59.976 118.624 60.12C118.768 60.264 118.936 60.336 119.128 60.336H121.108C121.3 60.336 121.456 60.264 121.576 60.12C121.72 59.976 121.792 59.808 121.792 59.616ZM136.305 60.228H137.745V63.36H134.361C131.385 63.36 129.897 61.776 129.897 58.608V41.616H134.721V45.432H137.745V48.924H134.721V58.5C134.721 59.172 134.853 59.628 135.117 59.868C135.381 60.108 135.777 60.228 136.305 60.228ZM148.8 45.072C151.776 45.072 153.264 46.656 153.264 49.824V55.512H145.092V59.184C145.092 59.376 145.152 59.544 145.272 59.688C145.416 59.832 145.584 59.904 145.776 59.904H147.756C147.948 59.904 148.104 59.832 148.224 59.688C148.368 59.544 148.44 59.376 148.44 59.184V57.24H153.264V58.608C153.264 61.776 151.776 63.36 148.8 63.36H144.732C141.756 63.36 140.268 61.776 140.268 58.608V49.824C140.268 46.656 141.756 45.072 144.732 45.072H148.8ZM145.092 52.344H148.44V49.104C148.44 48.912 148.368 48.744 148.224 48.6C148.104 48.456 147.948 48.384 147.756 48.384H145.776C145.584 48.384 145.416 48.456 145.272 48.6C145.152 48.744 145.092 48.912 145.092 49.104V52.344ZM160.737 63H155.913V39.708H160.737V63Z" fill="white"/>
</svg>
