<svg width="184" height="77" viewBox="0 0 184 77" fill="none" xmlns="http://www.w3.org/2000/svg">
<path d="M43.7477 28.036C43.6757 27.676 43.6757 27.292 43.7477 26.884C44.8517 26.788 45.6437 26.68 46.1237 26.56C46.6277 26.44 46.9397 26.2 47.0597 25.84C47.2037 25.456 47.2757 24.844 47.2757 24.004V7.264C47.2757 6.256 47.2157 5.536 47.0957 5.104C46.9757 4.672 46.6637 4.396 46.1597 4.276C45.6557 4.132 44.8397 4.012 43.7117 3.916C43.6397 3.556 43.6397 3.172 43.7117 2.764C44.1917 2.764 44.7797 2.776 45.4757 2.8C46.1957 2.8 46.9037 2.812 47.5997 2.836C48.2957 2.836 48.8597 2.836 49.2917 2.836C49.7237 2.836 50.2757 2.836 50.9477 2.836C51.6437 2.812 52.3397 2.8 53.0357 2.8C53.7557 2.776 54.3317 2.764 54.7637 2.764C54.8357 3.124 54.8357 3.508 54.7637 3.916C53.6597 4.012 52.8557 4.12 52.3517 4.24C51.8477 4.36 51.5357 4.612 51.4157 4.996C51.2957 5.356 51.2357 5.956 51.2357 6.796V13.888H64.1957V7.264C64.1957 6.256 64.1357 5.536 64.0157 5.104C63.8957 4.672 63.5957 4.396 63.1157 4.276C62.6357 4.132 61.8317 4.012 60.7037 3.916C60.6557 3.556 60.6557 3.172 60.7037 2.764C61.1597 2.764 61.7357 2.776 62.4317 2.8C63.1277 2.8 63.8237 2.812 64.5197 2.836C65.2157 2.836 65.7797 2.836 66.2117 2.836C66.6917 2.836 67.2677 2.836 67.9397 2.836C68.6117 2.812 69.2837 2.8 69.9557 2.8C70.6517 2.776 71.2397 2.764 71.7197 2.764C71.7677 3.124 71.7677 3.508 71.7197 3.916C70.5917 4.012 69.7757 4.12 69.2717 4.24C68.7677 4.36 68.4557 4.612 68.3357 4.996C68.2157 5.356 68.1557 5.956 68.1557 6.796V23.536C68.1557 24.52 68.2157 25.24 68.3357 25.696C68.4557 26.128 68.7557 26.416 69.2357 26.56C69.7397 26.68 70.5677 26.788 71.7197 26.884C71.7677 27.292 71.7677 27.676 71.7197 28.036C71.2157 28.036 70.6157 28.024 69.9197 28C69.2237 28 68.5277 28 67.8317 28C67.1597 27.976 66.5957 27.964 66.1397 27.964C65.7077 27.964 65.1557 27.976 64.4837 28C63.8117 28 63.1397 28 62.4677 28C61.7957 28.024 61.2197 28.036 60.7397 28.036C60.6677 27.676 60.6677 27.292 60.7397 26.884C61.8437 26.788 62.6357 26.68 63.1157 26.56C63.5957 26.44 63.8957 26.2 64.0157 25.84C64.1357 25.456 64.1957 24.844 64.1957 24.004V15.472H51.2357V23.536C51.2357 24.544 51.2957 25.264 51.4157 25.696C51.5357 26.128 51.8357 26.416 52.3157 26.56C52.8197 26.68 53.6357 26.788 54.7637 26.884C54.8117 27.292 54.8117 27.676 54.7637 28.036C54.2837 28.036 53.6957 28.024 52.9997 28C52.3037 28 51.6077 28 50.9117 28C50.2397 27.976 49.6757 27.964 49.2197 27.964C48.7877 27.964 48.2237 27.976 47.5277 28C46.8557 28 46.1717 28 45.4757 28C44.8037 28.024 44.2277 28.036 43.7477 28.036ZM82.9461 28.432C81.1941 28.432 79.6581 28.06 78.3381 27.316C77.0421 26.548 76.0341 25.504 75.3141 24.184C74.5941 22.84 74.2341 21.304 74.2341 19.576C74.2341 17.704 74.6061 16.072 75.3501 14.68C76.1181 13.288 77.1861 12.208 78.5541 11.44C79.9221 10.672 81.4941 10.288 83.2701 10.288C85.0221 10.288 86.5461 10.672 87.8421 11.44C89.1381 12.208 90.1461 13.264 90.8661 14.608C91.5861 15.952 91.9461 17.476 91.9461 19.18C91.9461 20.932 91.5621 22.516 90.7941 23.932C90.0501 25.324 89.0061 26.428 87.6621 27.244C86.3181 28.036 84.7461 28.432 82.9461 28.432ZM78.3021 19.144C78.3021 21.592 78.6981 23.536 79.4901 24.976C80.3061 26.392 81.5181 27.1 83.1261 27.1C84.6621 27.1 85.8381 26.428 86.6541 25.084C87.4701 23.716 87.8781 21.892 87.8781 19.612C87.8781 17.188 87.4701 15.256 86.6541 13.816C85.8381 12.376 84.6501 11.656 83.0901 11.656C81.5541 11.656 80.3661 12.316 79.5261 13.636C78.7101 14.956 78.3021 16.792 78.3021 19.144ZM101.28 28.432C99.8405 28.432 98.7005 28.096 97.8605 27.424C97.0205 26.728 96.6005 25.732 96.6005 24.436C96.6005 22.324 96.6125 20.284 96.6365 18.316C96.6845 16.348 96.7205 14.452 96.7445 12.628H94.0085C93.9365 12.268 93.9365 11.944 94.0085 11.656C96.3845 10.648 98.1725 9.004 99.3725 6.724C99.5645 6.724 99.7565 6.736 99.9485 6.76C100.14 6.76 100.308 6.772 100.452 6.796C100.428 7.42 100.404 8.08 100.38 8.776C100.38 9.472 100.368 10.204 100.344 10.972H105.816C105.888 11.5 105.888 12.052 105.816 12.628H100.344C100.296 14.308 100.26 16.084 100.236 17.956C100.236 19.804 100.236 21.664 100.236 23.536C100.236 25.48 101.244 26.452 103.26 26.452C104.124 26.452 104.928 26.224 105.672 25.768C105.888 26.056 106.02 26.416 106.068 26.848C104.652 27.904 103.056 28.432 101.28 28.432ZM115.412 28.432C113.708 28.432 112.268 28.036 111.092 27.244C109.916 26.452 109.016 25.396 108.392 24.076C107.792 22.732 107.492 21.256 107.492 19.648C107.492 17.992 107.804 16.456 108.428 15.04C109.076 13.624 110.012 12.484 111.236 11.62C112.46 10.732 113.948 10.288 115.7 10.288C117.812 10.288 119.456 10.924 120.632 12.196C121.832 13.444 122.432 15.064 122.432 17.056C122.432 17.296 122.42 17.512 122.396 17.704C122.396 17.872 122.384 18.016 122.36 18.136L111.02 18.028C111.02 18.124 111.02 18.208 111.02 18.28C111.02 20.632 111.56 22.48 112.64 23.824C113.72 25.168 115.232 25.84 117.176 25.84C118.808 25.84 120.416 25.312 122 24.256C122.24 24.544 122.42 24.82 122.54 25.084C120.5 27.316 118.124 28.432 115.412 28.432ZM111.128 16.696L118.58 16.552C118.604 16.504 118.616 16.444 118.616 16.372C118.616 16.276 118.616 16.216 118.616 16.192C118.616 14.896 118.328 13.816 117.752 12.952C117.2 12.088 116.372 11.656 115.268 11.656C114.236 11.656 113.336 12.076 112.568 12.916C111.8 13.756 111.32 15.016 111.128 16.696ZM133.738 28.036C133.042 28.036 132.334 28.024 131.614 28C130.894 27.976 130.09 27.964 129.202 27.964C128.314 27.964 127.522 27.976 126.826 28C126.13 28.024 125.422 28.036 124.702 28.036C124.63 27.652 124.63 27.28 124.702 26.92C125.518 26.872 126.118 26.8 126.502 26.704C126.886 26.584 127.138 26.344 127.258 25.984C127.378 25.624 127.438 25.048 127.438 24.256V6.22C127.438 5.476 127.366 4.924 127.222 4.564C127.102 4.18 126.826 3.916 126.394 3.772C125.986 3.604 125.362 3.484 124.522 3.412C124.45 3.1 124.45 2.776 124.522 2.44C125.482 2.32 126.466 2.14 127.474 1.9C128.482 1.636 129.514 1.276 130.57 0.819998L131.182 1.036C131.158 1.564 131.134 2.164 131.11 2.836C131.11 3.508 131.11 4.24 131.11 5.032V23.896C131.11 24.832 131.158 25.504 131.254 25.912C131.374 26.32 131.614 26.584 131.974 26.704C132.358 26.8 132.946 26.872 133.738 26.92C133.786 27.28 133.786 27.652 133.738 28.036ZM0.227219 76.036C0.179219 75.652 0.179219 75.268 0.227219 74.884C0.899219 74.812 1.43922 74.728 1.84722 74.632C2.25522 74.536 2.60322 74.368 2.89122 74.128C3.17922 73.864 3.45522 73.48 3.71922 72.976C3.98322 72.448 4.29522 71.716 4.65522 70.78L12.4312 50.836C12.6952 50.74 13.0072 50.668 13.3672 50.62C13.7512 50.572 14.0752 50.548 14.3392 50.548L22.0792 71.104C22.4152 71.968 22.6912 72.652 22.9072 73.156C23.1232 73.636 23.3632 73.984 23.6272 74.2C23.8912 74.416 24.2272 74.572 24.6352 74.668C25.0432 74.74 25.6072 74.812 26.3272 74.884C26.3752 75.268 26.3752 75.652 26.3272 76.036C25.4872 76.036 24.6232 76.024 23.7352 76C22.8472 75.976 21.9592 75.964 21.0712 75.964C20.1592 75.964 19.2352 75.976 18.2992 76C17.3872 76.024 16.4752 76.036 15.5632 76.036C15.4912 75.676 15.4912 75.292 15.5632 74.884C16.7392 74.764 17.5552 74.656 18.0112 74.56C18.4672 74.44 18.6952 74.152 18.6952 73.696C18.6952 73.504 18.6592 73.288 18.5872 73.048C18.5152 72.808 18.4192 72.508 18.2992 72.148L16.2472 66.604H8.14722L6.34722 71.572C6.17922 72.028 6.04722 72.412 5.95122 72.724C5.87922 73.012 5.84322 73.276 5.84322 73.516C5.84322 74.044 6.08322 74.38 6.56322 74.524C7.06722 74.644 7.88322 74.764 9.01122 74.884C9.05922 75.292 9.05922 75.676 9.01122 76.036C8.19522 76.036 7.39122 76.024 6.59922 76C5.80722 75.976 5.00322 75.964 4.18722 75.964C3.51522 75.964 2.86722 75.976 2.24322 76C1.61922 76.024 0.947219 76.036 0.227219 76.036ZM8.68722 65.092H15.7072L12.1792 55.516L8.68722 65.092ZM26.6048 76.036C26.5328 75.652 26.5328 75.28 26.6048 74.92C27.4208 74.872 28.0208 74.8 28.4048 74.704C28.7888 74.584 29.0408 74.344 29.1608 73.984C29.2808 73.624 29.3408 73.048 29.3408 72.256V64.192C29.3408 63.256 29.2928 62.56 29.1968 62.104C29.1248 61.648 28.8968 61.336 28.5128 61.168C28.1528 60.976 27.5288 60.82 26.6408 60.7C26.5688 60.364 26.5688 60.052 26.6408 59.764C27.6008 59.572 28.5368 59.356 29.4488 59.116C30.3608 58.852 31.3208 58.516 32.3288 58.108L32.9408 58.324V61.492C34.6208 59.356 36.3368 58.288 38.0888 58.288C38.9288 58.288 39.5528 58.516 39.9608 58.972C40.3688 59.404 40.5728 59.896 40.5728 60.448C40.5728 61.096 40.3568 61.6 39.9248 61.96C39.4928 62.296 39.0008 62.464 38.4488 62.464C37.9928 62.464 37.5368 62.344 37.0808 62.104C36.6488 61.864 36.3248 61.492 36.1088 60.988C35.2928 60.988 34.5608 61.312 33.9128 61.96C33.2888 62.584 32.9768 63.316 32.9768 64.156V71.896C32.9768 72.832 33.0248 73.504 33.1208 73.912C33.2408 74.32 33.5288 74.584 33.9848 74.704C34.4648 74.8 35.2328 74.872 36.2888 74.92C36.3368 75.256 36.3368 75.628 36.2888 76.036C35.4728 76.036 34.6328 76.024 33.7688 76C32.9048 75.976 32.0168 75.964 31.1048 75.964C30.2168 75.964 29.4248 75.976 28.7288 76C28.0568 76.024 27.3488 76.036 26.6048 76.036ZM50.3704 76.036C49.6984 76.036 49.0024 76.024 48.2824 76C47.5624 75.976 46.7824 75.964 45.9424 75.964C45.1744 75.964 44.3944 75.976 43.6024 76C42.8344 76.024 42.0904 76.036 41.3704 76.036C41.2984 75.652 41.2984 75.28 41.3704 74.92C42.1864 74.872 42.7864 74.8 43.1704 74.704C43.5544 74.584 43.8064 74.344 43.9264 73.984C44.0464 73.624 44.1064 73.048 44.1064 72.256V64.192C44.1064 63.256 44.0704 62.56 43.9984 62.104C43.9264 61.648 43.6984 61.336 43.3144 61.168C42.9544 60.976 42.3184 60.82 41.4064 60.7C41.3344 60.364 41.3344 60.052 41.4064 59.764C42.4624 59.572 43.4704 59.332 44.4304 59.044C45.3904 58.756 46.3144 58.444 47.2024 58.108L47.8144 58.324C47.7904 59.068 47.7664 59.764 47.7424 60.412C47.7424 61.06 47.7424 61.672 47.7424 62.248V71.896C47.7424 72.832 47.7904 73.504 47.8864 73.912C48.0064 74.32 48.2464 74.584 48.6064 74.704C48.9904 74.8 49.5784 74.872 50.3704 74.92C50.4424 75.28 50.4424 75.652 50.3704 76.036ZM43.1704 51.988C43.1704 51.292 43.4104 50.704 43.8904 50.224C44.3944 49.744 44.9944 49.504 45.6904 49.504C46.3624 49.504 46.9384 49.744 47.4184 50.224C47.9224 50.704 48.1744 51.28 48.1744 51.952C48.1744 52.576 47.9344 53.152 47.4544 53.68C46.9744 54.184 46.3624 54.436 45.6184 54.436C44.9464 54.436 44.3704 54.196 43.8904 53.716C43.4104 53.236 43.1704 52.66 43.1704 51.988ZM60.4451 76.432C58.7411 76.432 57.3011 76.036 56.1251 75.244C54.9491 74.452 54.0491 73.396 53.4251 72.076C52.8251 70.732 52.5251 69.256 52.5251 67.648C52.5251 65.992 52.8371 64.456 53.4611 63.04C54.1091 61.624 55.0451 60.484 56.2691 59.62C57.4931 58.732 58.9811 58.288 60.7331 58.288C62.8451 58.288 64.4891 58.924 65.6651 60.196C66.8651 61.444 67.4651 63.064 67.4651 65.056C67.4651 65.296 67.4531 65.512 67.4291 65.704C67.4291 65.872 67.4171 66.016 67.3931 66.136L56.0531 66.028C56.0531 66.124 56.0531 66.208 56.0531 66.28C56.0531 68.632 56.5931 70.48 57.6731 71.824C58.7531 73.168 60.2651 73.84 62.2091 73.84C63.8411 73.84 65.4491 73.312 67.0331 72.256C67.2731 72.544 67.4531 72.82 67.5731 73.084C65.5331 75.316 63.1571 76.432 60.4451 76.432ZM56.1611 64.696L63.6131 64.552C63.6371 64.504 63.6491 64.444 63.6491 64.372C63.6491 64.276 63.6491 64.216 63.6491 64.192C63.6491 62.896 63.3611 61.816 62.7851 60.952C62.2331 60.088 61.4051 59.656 60.3011 59.656C59.2691 59.656 58.3691 60.076 57.6011 60.916C56.8331 61.756 56.3531 63.016 56.1611 64.696ZM81.2556 76.036C81.2076 75.652 81.2076 75.28 81.2556 74.92C81.9996 74.872 82.5516 74.8 82.9116 74.704C83.2716 74.584 83.5116 74.344 83.6316 73.984C83.7516 73.624 83.8116 73.048 83.8116 72.256V64.984C83.8116 63.544 83.5836 62.476 83.1276 61.78C82.6956 61.06 81.8196 60.7 80.4996 60.7C79.8036 60.7 79.1316 60.832 78.4836 61.096C77.8356 61.336 77.1276 61.804 76.3596 62.5V71.896C76.3596 72.832 76.4076 73.504 76.5036 73.912C76.6236 74.32 76.8636 74.584 77.2236 74.704C77.5836 74.8 78.1476 74.872 78.9156 74.92C78.9636 75.28 78.9636 75.652 78.9156 76.036C78.2436 76.036 77.5356 76.024 76.7916 76C76.0716 75.976 75.2916 75.964 74.4516 75.964C73.6836 75.964 72.9276 75.976 72.1836 76C71.4396 76.024 70.7076 76.036 69.9876 76.036C69.9156 75.652 69.9156 75.28 69.9876 74.92C70.8036 74.872 71.4036 74.8 71.7876 74.704C72.1716 74.584 72.4236 74.344 72.5436 73.984C72.6636 73.624 72.7236 73.048 72.7236 72.256V64.192C72.7236 63.256 72.6756 62.56 72.5796 62.104C72.5076 61.648 72.2796 61.336 71.8956 61.168C71.5356 60.976 70.9116 60.82 70.0236 60.7C69.9516 60.364 69.9516 60.052 70.0236 59.764C72.0876 59.356 73.9836 58.804 75.7116 58.108L76.3236 58.324V61.024C77.4276 60.016 78.5076 59.308 79.5636 58.9C80.6196 58.492 81.6276 58.288 82.5876 58.288C84.1716 58.288 85.3836 58.756 86.2236 59.692C87.0636 60.628 87.4836 61.972 87.4836 63.724V71.896C87.4836 72.832 87.5316 73.504 87.6276 73.912C87.7476 74.32 87.9876 74.584 88.3476 74.704C88.7076 74.8 89.2836 74.872 90.0756 74.92C90.1236 75.28 90.1236 75.652 90.0756 76.036C89.3556 76.036 88.6476 76.024 87.9516 76C87.2796 75.976 86.4876 75.964 85.5756 75.964C84.6876 75.964 83.9076 75.976 83.2356 76C82.5876 76.024 81.9276 76.036 81.2556 76.036ZM110.497 64.84C110.065 64.84 109.585 64.816 109.057 64.768C108.529 64.72 107.929 64.624 107.257 64.48V71.536C107.257 72.28 107.281 72.868 107.329 73.3C107.377 73.708 107.521 74.02 107.761 74.236C108.025 74.452 108.385 74.596 108.841 74.668C109.321 74.74 110.077 74.812 111.109 74.884C111.157 75.268 111.157 75.652 111.109 76.036C110.581 76.036 109.945 76.024 109.201 76C108.481 76 107.761 76 107.041 76C106.345 75.976 105.757 75.964 105.277 75.964C104.821 75.964 104.245 75.976 103.549 76C102.877 76 102.193 76 101.497 76C100.825 76.024 100.225 76.036 99.6972 76.036C99.6492 75.676 99.6492 75.292 99.6972 74.884C100.849 74.764 101.677 74.656 102.181 74.56C102.685 74.44 102.997 74.2 103.117 73.84C103.237 73.48 103.297 72.868 103.297 72.004V55.264C103.297 54.256 103.237 53.536 103.117 53.104C102.997 52.672 102.685 52.396 102.181 52.276C101.677 52.132 100.849 52.012 99.6972 51.916C99.6492 51.556 99.6492 51.172 99.6972 50.764C100.177 50.764 100.777 50.776 101.497 50.8C102.241 50.8 102.961 50.812 103.657 50.836C104.353 50.836 104.857 50.836 105.169 50.836C105.625 50.836 106.189 50.836 106.861 50.836C107.557 50.812 108.241 50.788 108.913 50.764C109.585 50.74 110.113 50.728 110.497 50.728C112.009 50.728 113.413 50.944 114.709 51.376C116.005 51.784 117.049 52.468 117.841 53.428C118.633 54.388 119.029 55.708 119.029 57.388C119.029 58.996 118.657 60.352 117.913 61.456C117.169 62.56 116.149 63.4 114.853 63.976C113.581 64.552 112.129 64.84 110.497 64.84ZM107.257 63.04C107.569 63.112 107.917 63.184 108.301 63.256C108.685 63.328 109.093 63.364 109.525 63.364C111.109 63.364 112.357 62.836 113.269 61.78C114.181 60.7 114.637 59.296 114.637 57.568C114.637 55.888 114.181 54.568 113.269 53.608C112.357 52.648 110.989 52.168 109.165 52.168C108.925 52.168 108.625 52.18 108.265 52.204C107.929 52.228 107.593 52.264 107.257 52.312V63.04ZM129.678 76.036C128.982 76.036 128.274 76.024 127.554 76C126.834 75.976 126.03 75.964 125.142 75.964C124.254 75.964 123.462 75.976 122.766 76C122.07 76.024 121.362 76.036 120.642 76.036C120.57 75.652 120.57 75.28 120.642 74.92C121.458 74.872 122.058 74.8 122.442 74.704C122.826 74.584 123.078 74.344 123.198 73.984C123.318 73.624 123.378 73.048 123.378 72.256V54.22C123.378 53.476 123.306 52.924 123.162 52.564C123.042 52.18 122.766 51.916 122.334 51.772C121.926 51.604 121.302 51.484 120.462 51.412C120.39 51.1 120.39 50.776 120.462 50.44C121.422 50.32 122.406 50.14 123.414 49.9C124.422 49.636 125.454 49.276 126.51 48.82L127.122 49.036C127.098 49.564 127.074 50.164 127.05 50.836C127.05 51.508 127.05 52.24 127.05 53.032V71.896C127.05 72.832 127.098 73.504 127.194 73.912C127.314 74.32 127.554 74.584 127.914 74.704C128.298 74.8 128.886 74.872 129.678 74.92C129.726 75.28 129.726 75.652 129.678 76.036ZM144.222 76.36C142.638 76.36 141.642 75.568 141.234 73.984C139.53 75.616 137.79 76.432 136.014 76.432C134.79 76.432 133.746 76.072 132.882 75.352C132.042 74.608 131.622 73.588 131.622 72.292C131.622 69.124 134.85 67.132 141.306 66.316C141.306 65.74 141.306 65.152 141.306 64.552C141.33 63.952 141.342 63.316 141.342 62.644C141.342 61.804 141.03 61.156 140.406 60.7C139.806 60.22 139.074 59.98 138.21 59.98C137.586 59.98 137.058 60.076 136.626 60.268C136.626 60.82 136.506 61.384 136.266 61.96C136.026 62.536 135.69 63.028 135.258 63.436C134.85 63.82 134.346 64.012 133.746 64.012C133.218 64.012 132.798 63.868 132.486 63.58C132.198 63.268 132.054 62.896 132.054 62.464C132.054 61.888 132.318 61.348 132.846 60.844C133.398 60.316 134.094 59.872 134.934 59.512C135.774 59.128 136.65 58.828 137.562 58.612C138.474 58.396 139.29 58.288 140.01 58.288C140.898 58.288 141.714 58.456 142.458 58.792C143.226 59.104 143.838 59.584 144.294 60.232C144.774 60.856 145.014 61.636 145.014 62.572C145.014 63.148 145.002 63.904 144.978 64.84C144.954 65.752 144.93 66.736 144.906 67.792C144.906 68.824 144.894 69.808 144.87 70.744C144.846 71.68 144.834 72.436 144.834 73.012C144.834 73.78 145.17 74.164 145.842 74.164C146.274 74.164 146.934 74.02 147.822 73.732C147.918 73.852 147.978 73.984 148.002 74.128C148.05 74.272 148.086 74.404 148.11 74.524C147.51 75.172 146.874 75.64 146.202 75.928C145.554 76.216 144.894 76.36 144.222 76.36ZM141.234 73.012L141.306 67.612C139.098 67.9 137.574 68.368 136.734 69.016C135.918 69.664 135.51 70.492 135.51 71.5C135.51 72.34 135.726 72.988 136.158 73.444C136.614 73.876 137.178 74.092 137.85 74.092C138.282 74.092 138.762 73.996 139.29 73.804C139.842 73.612 140.49 73.348 141.234 73.012ZM163.92 76.036C162.864 75.988 161.916 75.964 161.076 75.964C160.236 75.964 159.504 75.964 158.88 75.964H154.668C153.924 75.964 153.096 75.964 152.184 75.964C151.272 75.964 150.3 75.976 149.268 76C149.148 75.76 149.088 75.508 149.088 75.244L159.564 60.268H155.82C154.62 60.268 153.72 60.364 153.12 60.556C152.52 60.724 152.052 61.072 151.716 61.6C151.38 62.128 150.996 62.92 150.563 63.976C150.204 64.024 149.856 63.988 149.52 63.868C149.688 62.884 149.832 61.96 149.952 61.096C150.096 60.232 150.18 59.452 150.204 58.756C151.236 58.804 152.376 58.852 153.624 58.9C154.872 58.924 156.156 58.936 157.476 58.936C158.532 58.936 159.684 58.924 160.932 58.9C162.18 58.876 163.284 58.852 164.244 58.828C164.412 59.068 164.496 59.332 164.496 59.62L153.984 74.596H158.376C159.24 74.596 159.936 74.548 160.464 74.452C160.992 74.356 161.436 74.164 161.796 73.876C162.18 73.588 162.552 73.156 162.912 72.58C163.272 71.98 163.704 71.188 164.208 70.204C164.592 70.204 164.916 70.264 165.18 70.384C164.94 71.32 164.712 72.268 164.496 73.228C164.304 74.164 164.112 75.1 163.92 76.036ZM179.835 76.36C178.251 76.36 177.255 75.568 176.847 73.984C175.143 75.616 173.403 76.432 171.627 76.432C170.403 76.432 169.359 76.072 168.495 75.352C167.655 74.608 167.235 73.588 167.235 72.292C167.235 69.124 170.463 67.132 176.919 66.316C176.919 65.74 176.919 65.152 176.919 64.552C176.943 63.952 176.955 63.316 176.955 62.644C176.955 61.804 176.643 61.156 176.019 60.7C175.419 60.22 174.687 59.98 173.823 59.98C173.199 59.98 172.671 60.076 172.239 60.268C172.239 60.82 172.119 61.384 171.879 61.96C171.639 62.536 171.303 63.028 170.871 63.436C170.463 63.82 169.959 64.012 169.359 64.012C168.831 64.012 168.411 63.868 168.099 63.58C167.811 63.268 167.667 62.896 167.667 62.464C167.667 61.888 167.931 61.348 168.459 60.844C169.011 60.316 169.707 59.872 170.547 59.512C171.387 59.128 172.263 58.828 173.175 58.612C174.087 58.396 174.903 58.288 175.623 58.288C176.511 58.288 177.327 58.456 178.071 58.792C178.839 59.104 179.451 59.584 179.907 60.232C180.387 60.856 180.627 61.636 180.627 62.572C180.627 63.148 180.615 63.904 180.591 64.84C180.567 65.752 180.543 66.736 180.519 67.792C180.519 68.824 180.507 69.808 180.483 70.744C180.459 71.68 180.447 72.436 180.447 73.012C180.447 73.78 180.783 74.164 181.455 74.164C181.887 74.164 182.547 74.02 183.435 73.732C183.531 73.852 183.591 73.984 183.615 74.128C183.663 74.272 183.699 74.404 183.723 74.524C183.123 75.172 182.487 75.64 181.815 75.928C181.167 76.216 180.507 76.36 179.835 76.36ZM176.847 73.012L176.919 67.612C174.711 67.9 173.187 68.368 172.347 69.016C171.531 69.664 171.123 70.492 171.123 71.5C171.123 72.34 171.339 72.988 171.771 73.444C172.227 73.876 172.791 74.092 173.463 74.092C173.895 74.092 174.375 73.996 174.903 73.804C175.455 73.612 176.103 73.348 176.847 73.012Z" fill="white"/>
</svg>
