<svg width="186" height="77" viewBox="0 0 186 77" fill="none" xmlns="http://www.w3.org/2000/svg">
<path d="M0.197266 4.94L8.47727 0.799998H12.0053V26H6.60527V7.424L2.10527 9.476L0.197266 4.94ZM20.121 9.98L15.261 8.144C15.837 5.732 17.133 3.86 19.077 2.528C21.021 1.232 23.181 0.547999 25.629 0.547999C28.581 0.547999 30.885 1.34 32.469 2.888C34.053 4.436 34.845 6.452 34.845 8.9C34.845 11.168 34.197 13.112 32.901 14.768C31.605 16.424 29.661 18.08 27.141 19.7L25.449 20.78H35.097V26H15.621V21.932L18.609 19.844C22.317 17.252 24.585 15.632 25.377 14.984C27.825 12.932 29.049 11.06 29.085 9.404C29.085 8.324 28.761 7.46 28.149 6.848C27.501 6.272 26.601 5.948 25.413 5.948C22.929 5.948 21.165 7.316 20.121 9.98ZM44.6038 30.032V21.14H46.7278C47.9518 18.548 48.5998 14.66 48.5998 9.548V7.28H63.4318V21.14H65.9518V30.032H61.0918V26H49.4638V30.032H44.6038ZM53.3878 12.14V13.292C53.3878 14.372 53.2438 15.776 52.9918 17.468C52.7398 19.196 52.4158 20.42 52.0558 21.14H58.2118V12.14H53.3878ZM81.8832 19.376L85.0152 22.544C82.9992 25.064 80.3352 26.288 76.9512 26.288C73.8912 26.288 71.4432 25.424 69.6072 23.66C67.7352 21.896 66.8352 19.556 66.8352 16.604C66.8352 13.796 67.6632 11.456 69.3912 9.62C71.0832 7.82 73.4592 6.884 76.5552 6.884C79.1472 6.884 81.2712 7.676 82.9632 9.26C84.6192 10.844 85.4832 12.932 85.4832 15.488C85.4832 16.28 85.3752 17.288 85.1952 18.512H72.3072C72.7752 20.456 74.3592 21.428 77.0232 21.428C77.9592 21.428 78.8592 21.248 79.7592 20.888C80.6232 20.528 81.3432 20.024 81.8832 19.376ZM76.3752 11.564C74.3592 11.564 73.0632 12.392 72.4152 14.012H80.0832C79.6512 12.392 78.3912 11.564 76.3752 11.564ZM85.8061 12.14V7.28H103.842V12.14H97.3981V26H92.1781V12.14H85.8061ZM118.827 18.98L122.643 21.248C121.779 22.904 120.627 24.128 119.115 24.992C117.603 25.856 115.983 26.288 114.183 26.288C111.123 26.288 108.675 25.424 106.803 23.66C104.931 21.896 104.031 19.556 104.031 16.604C104.031 13.796 104.931 11.492 106.803 9.656C108.639 7.82 111.015 6.884 113.931 6.884C116.055 6.884 117.855 7.316 119.331 8.18C120.807 9.044 121.851 10.16 122.499 11.564L118.611 14.084C117.459 12.536 115.983 11.744 114.255 11.744C112.815 11.744 111.627 12.212 110.763 13.076C109.863 13.976 109.431 15.164 109.431 16.604C109.431 17.972 109.899 19.088 110.907 20.024C111.879 20.96 113.175 21.428 114.759 21.428C116.487 21.428 117.819 20.636 118.827 18.98ZM124.372 26V7.28H129.592V13.976L136.216 7.28H142.984L134.488 15.596L143.164 26H136.54L130.744 18.908L129.592 20.096V26H124.372ZM148.839 26H144.411V7.28H149.631V17.468L158.019 7.28H162.447V26H157.227V15.812L148.839 26ZM184.833 7.28L177.669 16.352L185.157 26H178.677L174.393 20.276L169.965 26H163.701L171.189 16.388L164.061 7.28H170.505L174.501 12.356L178.533 7.28H184.833ZM57.4437 64.98L61.2597 67.248C60.3957 68.904 59.2437 70.128 57.7317 70.992C56.2197 71.856 54.5997 72.288 52.7997 72.288C49.7397 72.288 47.2917 71.424 45.4197 69.66C43.5477 67.896 42.6477 65.556 42.6477 62.604C42.6477 59.796 43.5477 57.492 45.4197 55.656C47.2557 53.82 49.6317 52.884 52.5477 52.884C54.6717 52.884 56.4717 53.316 57.9477 54.18C59.4237 55.044 60.4677 56.16 61.1157 57.564L57.2277 60.084C56.0757 58.536 54.5997 57.744 52.8717 57.744C51.4317 57.744 50.2437 58.212 49.3797 59.076C48.4797 59.976 48.0477 61.164 48.0477 62.604C48.0477 63.972 48.5157 65.088 49.5237 66.024C50.4957 66.96 51.7917 67.428 53.3757 67.428C55.1037 67.428 56.4357 66.636 57.4437 64.98ZM65.5811 59.544L63.0971 55.764C64.9331 53.856 67.6691 52.884 71.3411 52.884C73.7531 52.884 75.6251 53.568 76.9931 54.936C78.3251 56.304 79.0091 58.212 79.0091 60.66V72H73.7891V70.308C73.3571 70.812 72.6731 71.28 71.7371 71.64C70.8011 72.036 69.8291 72.216 68.7491 72.216C66.6611 72.216 65.0051 71.676 63.7811 70.56C62.5211 69.444 61.9091 67.968 61.9091 66.096C61.9091 64.08 62.7011 62.532 64.3211 61.488C65.9411 60.48 67.9571 59.94 70.4051 59.94C71.7731 59.94 72.9251 60.12 73.7891 60.408C73.7891 59.472 73.5731 58.824 73.0691 58.392C72.5651 57.96 71.7731 57.744 70.7651 57.744C69.7571 57.744 68.8571 57.888 68.1371 58.14C67.4171 58.392 66.5531 58.86 65.5811 59.544ZM69.8291 67.716C70.6931 67.716 71.4851 67.536 72.2051 67.104C72.9251 66.708 73.4651 66.204 73.7891 65.592V64.728C72.9251 64.44 71.9891 64.26 70.9451 64.26C68.4971 64.26 67.3091 64.872 67.3091 66.096C67.3091 66.6 67.5251 66.996 67.9571 67.284C68.3891 67.572 69.0371 67.716 69.8291 67.716ZM80.7093 76.032V67.14H82.8333C84.0573 64.548 84.7053 60.66 84.7053 55.548V53.28H99.5373V67.14H102.057V76.032H97.1973V72H85.5693V76.032H80.7093ZM89.4933 58.14V59.292C89.4933 60.372 89.3493 61.776 89.0973 63.468C88.8453 65.196 88.5213 66.42 88.1613 67.14H94.3173V58.14H89.4933ZM102.941 62.604C102.941 59.796 103.877 57.456 105.749 55.62C107.621 53.82 110.069 52.884 113.057 52.884C116.009 52.884 118.457 53.82 120.365 55.62C122.273 57.456 123.245 59.796 123.245 62.604C123.245 65.412 122.273 67.752 120.365 69.552C118.457 71.388 116.009 72.288 113.057 72.288C110.141 72.288 107.729 71.388 105.821 69.552C103.877 67.752 102.941 65.412 102.941 62.604ZM108.341 62.604C108.341 64.008 108.773 65.16 109.637 66.06C110.501 66.996 111.653 67.428 113.057 67.428C114.497 67.428 115.649 66.996 116.513 66.132C117.377 65.268 117.845 64.116 117.845 62.604C117.845 61.128 117.377 59.94 116.477 59.076C115.541 58.212 114.425 57.744 113.057 57.744C111.689 57.744 110.537 58.176 109.673 59.04C108.773 59.904 108.341 61.092 108.341 62.604ZM125.567 72V53.28H133.739C136.475 53.28 138.491 53.712 139.859 54.504C141.191 55.332 141.875 56.664 141.875 58.464C141.875 59.688 141.299 60.876 140.147 62.028C141.587 62.748 142.343 64.152 142.343 66.204C142.343 68.076 141.659 69.516 140.363 70.524C139.067 71.532 137.267 72 134.999 72H125.567ZM134.279 64.764H130.787V67.32H134.495C136.115 67.32 136.943 66.924 136.943 66.096C136.943 65.628 136.727 65.304 136.295 65.088C135.863 64.872 135.215 64.764 134.279 64.764ZM133.631 57.96H130.787V60.264H134.711C135.863 60.264 136.475 59.904 136.475 59.112C136.475 58.644 136.259 58.32 135.863 58.176C135.431 58.032 134.711 57.96 133.631 57.96Z" fill="white"/>
</svg>
