<svg width="190" height="25" viewBox="0 0 190 25" fill="none" xmlns="http://www.w3.org/2000/svg">
<path d="M5.04 24H0.0800002V1.6H9.36C11.152 1.6 12.72 1.824 14.032 2.272C15.312 2.72 16.304 3.328 16.976 4.096C17.648 4.864 18.128 5.696 18.416 6.528C18.704 7.392 18.864 8.32 18.864 9.312C18.864 11.456 18.096 13.28 16.56 14.752C15.024 16.224 12.624 16.96 9.36 16.96H5.04V24ZM9.488 6.24H5.04V12.32H9.296C12.24 12.32 13.712 11.328 13.712 9.28C13.712 7.264 12.304 6.24 9.488 6.24ZM32.016 18.112L34.8 20.928C33.008 23.168 30.64 24.256 27.632 24.256C24.912 24.256 22.736 23.488 21.104 21.92C19.44 20.352 18.64 18.272 18.64 15.648C18.64 13.152 19.376 11.072 20.912 9.44C22.416 7.84 24.528 7.008 27.28 7.008C29.584 7.008 31.472 7.712 32.976 9.12C34.448 10.528 35.216 12.384 35.216 14.656C35.216 15.36 35.12 16.256 34.96 17.344H23.504C23.92 19.072 25.328 19.936 27.696 19.936C28.528 19.936 29.328 19.776 30.128 19.456C30.896 19.136 31.536 18.688 32.016 18.112ZM27.12 11.168C25.328 11.168 24.176 11.904 23.6 13.344H30.416C30.032 11.904 28.912 11.168 27.12 11.168ZM37.2838 24V7.36H41.9238V8.032C42.1158 7.776 42.4358 7.552 42.9478 7.36C43.4598 7.168 43.9718 7.04 44.4838 7.04C45.3158 7.04 45.9558 7.168 46.4358 7.392C46.8838 7.616 47.3318 7.968 47.7478 8.48L45.3798 12.192C45.1238 11.744 44.6438 11.52 43.8758 11.52C42.8838 11.52 42.2438 12.096 41.9238 13.248V24H37.2838ZM47.5975 11.68V7.36H49.9015V7.04C49.9015 4.8 50.4455 3.104 51.5975 2.016C52.7175 0.927999 54.1575 0.383999 55.9495 0.383999C57.9655 0.383999 59.4695 1.056 60.4615 2.336L57.9015 5.344C57.5175 4.928 56.9415 4.704 56.2375 4.704C55.0855 4.704 54.5095 5.504 54.5095 7.04V7.36H58.7015V11.68H54.5415V24H49.9015V11.68H47.5975ZM72.5785 18.112L75.3625 20.928C73.5705 23.168 71.2025 24.256 68.1945 24.256C65.4745 24.256 63.2985 23.488 61.6665 21.92C60.0025 20.352 59.2025 18.272 59.2025 15.648C59.2025 13.152 59.9385 11.072 61.4745 9.44C62.9785 7.84 65.0905 7.008 67.8425 7.008C70.1465 7.008 72.0345 7.712 73.5385 9.12C75.0105 10.528 75.7785 12.384 75.7785 14.656C75.7785 15.36 75.6825 16.256 75.5225 17.344H64.0665C64.4825 19.072 65.8905 19.936 68.2585 19.936C69.0905 19.936 69.8905 19.776 70.6905 19.456C71.4585 19.136 72.0985 18.688 72.5785 18.112ZM67.6825 11.168C65.8905 11.168 64.7385 11.904 64.1625 13.344H70.9785C70.5945 11.904 69.4745 11.168 67.6825 11.168ZM90.1983 17.76L93.5903 19.776C92.8223 21.248 91.7983 22.336 90.4543 23.104C89.1103 23.872 87.6703 24.256 86.0703 24.256C83.3503 24.256 81.1743 23.488 79.5103 21.92C77.8463 20.352 77.0463 18.272 77.0463 15.648C77.0463 13.152 77.8463 11.104 79.5103 9.472C81.1423 7.84 83.2543 7.008 85.8463 7.008C87.7343 7.008 89.3343 7.392 90.6463 8.16C91.9583 8.928 92.8863 9.92 93.4623 11.168L90.0063 13.408C88.9823 12.032 87.6703 11.328 86.1343 11.328C84.8542 11.328 83.7983 11.744 83.0303 12.512C82.2303 13.312 81.8463 14.368 81.8463 15.648C81.8463 16.864 82.2623 17.856 83.1583 18.688C84.0223 19.52 85.1743 19.936 86.5823 19.936C88.1183 19.936 89.3023 19.232 90.1983 17.76ZM93.8475 11.68V7.36H97.0155V3.488H101.656V7.36H106.744V11.68H101.656V17.088C101.656 18.112 101.784 18.816 102.04 19.232C102.296 19.68 102.712 19.872 103.352 19.872C104.312 19.872 105.272 19.52 106.2 18.784L108.12 22.08C106.776 23.488 105.016 24.192 102.904 24.192C101.112 24.192 99.6715 23.712 98.6155 22.752C97.5275 21.792 97.0155 20.352 97.0155 18.464V11.68H93.8475Z" fill="white"/>
<path d="M126.977 16.608L129.921 19.776C128.897 21.248 127.553 22.4 125.889 23.2C124.225 24 122.369 24.384 120.385 24.384C116.897 24.384 114.113 23.328 112.033 21.216C109.953 19.104 108.929 16.288 108.929 12.8C108.929 9.536 109.985 6.816 112.161 4.576C114.305 2.336 117.089 1.216 120.513 1.216C122.497 1.216 124.321 1.632 125.921 2.4C127.521 3.168 128.737 4.192 129.569 5.472L126.209 8.544C125.569 7.744 124.737 7.136 123.777 6.688C122.785 6.24 121.825 6.016 120.865 6.016C118.817 6.016 117.185 6.656 115.937 7.872C114.689 9.088 114.081 10.752 114.081 12.8C114.081 14.816 114.689 16.448 115.969 17.696C117.249 18.976 118.849 19.584 120.801 19.584C123.329 19.584 125.377 18.592 126.977 16.608ZM131.69 24V0.639999H136.33V24H131.69ZM151.797 18.112L154.581 20.928C152.789 23.168 150.421 24.256 147.413 24.256C144.693 24.256 142.517 23.488 140.885 21.92C139.221 20.352 138.421 18.272 138.421 15.648C138.421 13.152 139.157 11.072 140.693 9.44C142.197 7.84 144.309 7.008 147.061 7.008C149.365 7.008 151.253 7.712 152.757 9.12C154.229 10.528 154.997 12.384 154.997 14.656C154.997 15.36 154.901 16.256 154.741 17.344H143.285C143.701 19.072 145.109 19.936 147.477 19.936C148.309 19.936 149.109 19.776 149.909 19.456C150.677 19.136 151.317 18.688 151.797 18.112ZM146.901 11.168C145.109 11.168 143.957 11.904 143.381 13.344H150.197C149.813 11.904 148.693 11.168 146.901 11.168ZM159.369 12.928L157.161 9.568C158.793 7.872 161.225 7.008 164.489 7.008C166.633 7.008 168.297 7.616 169.513 8.832C170.697 10.048 171.305 11.744 171.305 13.92V24H166.665V22.496C166.281 22.944 165.673 23.36 164.841 23.68C164.009 24.032 163.145 24.192 162.185 24.192C160.329 24.192 158.857 23.712 157.769 22.72C156.649 21.728 156.105 20.416 156.105 18.752C156.105 16.96 156.809 15.584 158.249 14.656C159.689 13.76 161.481 13.28 163.657 13.28C164.873 13.28 165.897 13.44 166.665 13.696C166.665 12.864 166.473 12.288 166.025 11.904C165.577 11.52 164.873 11.328 163.977 11.328C163.081 11.328 162.281 11.456 161.641 11.68C161.001 11.904 160.233 12.32 159.369 12.928ZM163.145 20.192C163.913 20.192 164.617 20.032 165.257 19.648C165.897 19.296 166.377 18.848 166.665 18.304V17.536C165.897 17.28 165.065 17.12 164.137 17.12C161.961 17.12 160.905 17.664 160.905 18.752C160.905 19.2 161.097 19.552 161.481 19.808C161.865 20.064 162.441 20.192 163.145 20.192ZM174.096 24V7.36H178.736V8.544C179.568 7.552 181.072 7.04 183.28 7.04C185.456 7.04 187.088 7.68 188.176 8.896C189.264 10.112 189.84 12.032 189.84 14.656V24H185.2V14.944C185.2 13.664 184.912 12.736 184.4 12.192C183.888 11.648 183.056 11.36 181.936 11.36C180.4 11.36 179.312 12.096 178.736 13.568V24H174.096Z" fill="#2F003A"/>
</svg>
